<svg width="1200" height="850" viewBox="0 0 1200 850" fill="none" xmlns="http://www.w3.org/2000/svg">
<path d="M1200 670.5C1200 704.466 1172.47 732 1138.5 732H1136C1103.42 732 1077 758.415 1077 791V791C1077 823.585 1050.58 850 1018 850H752.6C710.036 850 688.754 850 672.497 841.716C658.196 834.43 646.57 822.804 639.284 808.503C631 792.246 631 770.964 631 728.4V662.6C631 620.036 631 598.754 622.716 582.497C615.43 568.196 603.804 556.57 589.503 549.284C573.246 541 551.964 541 509.4 541H121.6C79.036 541 57.754 541 41.4967 532.716C27.1964 525.43 15.5699 513.804 8.2835 499.503C0 483.246 0 461.964 0 419.4V121.6C0 79.036 0 57.754 8.2835 41.4967C15.5699 27.1964 27.1964 15.5699 41.4967 8.2835C57.754 0 79.036 0 121.6 0H1078.4C1120.96 0 1142.25 0 1158.5 8.2835C1172.8 15.5699 1184.43 27.1964 1191.72 41.4967C1200 57.754 1200 79.036 1200 121.6V670.5Z" fill="#D9D9D9"/>
<circle cx="1162.5" cy="812.5" r="37.5" fill="#D9D9D9"/>
</svg>
