<svg width="938" height="700" viewBox="0 0 938 700" fill="none" xmlns="http://www.w3.org/2000/svg">
<path d="M938 592C938 612.435 921.435 629 901 629H899.5C879.894 629 864 644.894 864 664.5V664.5C864 684.106 848.106 700 828.5 700H379.067C350.691 700 336.503 700 325.664 694.478C316.131 689.62 308.38 681.869 303.522 672.336C298 661.497 298 647.309 298 618.933V402.067C298 373.691 298 359.503 292.478 348.664C287.62 339.131 279.869 331.38 270.336 326.522C259.497 321 245.309 321 216.933 321H81.0667C52.6907 321 38.5027 321 27.6645 315.478C18.1309 310.62 10.3799 302.869 5.52234 293.336C0 282.497 0 268.309 0 239.933V81.0667C0 52.6907 0 38.5027 5.52234 27.6645C10.3799 18.1309 18.1309 10.3799 27.6645 5.52234C38.5027 0 52.6907 0 81.0667 0H856.933C885.309 0 899.497 0 910.336 5.52234C919.869 10.3799 927.62 18.1309 932.478 27.6645C938 38.5027 938 52.6907 938 81.0667V592ZM906.5 187C896.283 187 888 195.283 888 205.5V493.5C888 503.717 896.283 512 906.5 512V512C916.717 512 925 503.717 925 493.5V205.5C925 195.283 916.717 187 906.5 187V187Z" fill="#D9D9D9"/>
<circle cx="913" cy="674" r="25" fill="#D9D9D9"/>
</svg>
