<svg width="24" height="24" viewBox="0 0 24 24" fill="none" xmlns="http://www.w3.org/2000/svg">
<path d="M13.6112 2.48324C13.3165 2.17381 12.917 2 12.5005 2C12.084 2 11.6846 2.17381 11.3899 2.48324L5.46048 8.7138C5.16564 9.02378 5 9.4442 5 9.88258C5 10.321 5.16564 10.7414 5.46048 11.0514C5.75532 11.3613 6.15521 11.5355 6.57218 11.5355C6.98914 11.5355 7.38903 11.3613 7.68387 11.0514L10.9289 7.64086V20.3476C10.9289 20.7859 11.0944 21.2061 11.3892 21.516C11.6839 21.8259 12.0837 22 12.5005 22C12.9174 22 13.3171 21.8259 13.6119 21.516C13.9066 21.2061 14.0722 20.7859 14.0722 20.3476V7.64086L17.3161 11.0514C17.4621 11.2048 17.6354 11.3266 17.8262 11.4097C18.0169 11.4927 18.2214 11.5355 18.4278 11.5355C18.6343 11.5355 18.8387 11.4927 19.0295 11.4097C19.2202 11.3266 19.3935 11.2048 19.5395 11.0514C19.6855 10.8979 19.8013 10.7157 19.8803 10.5151C19.9593 10.3146 20 10.0996 20 9.88258C20 9.66552 19.9593 9.45058 19.8803 9.25004C19.8013 9.0495 19.6855 8.86729 19.5395 8.7138L13.6112 2.48324Z" fill="black"/>
</svg>
