<svg width="24" height="24" viewBox="0 0 24 24" fill="none" xmlns="http://www.w3.org/2000/svg">
<path d="M19.7168 20H4.28317C3.67386 20.0009 3.07677 19.8328 2.56099 19.5153C2.04521 19.1977 1.63184 18.7437 1.36874 18.2057C1.06074 17.5674 0.942107 16.8573 1.02637 16.1562C1.11063 15.4551 1.39439 14.7913 1.84531 14.2404L9.56214 5.08967C9.86498 4.74763 10.2394 4.47331 10.66 4.28531C11.0806 4.0973 11.5376 4 12 4C12.4624 4 12.9194 4.0973 13.34 4.28531C13.7606 4.47331 14.135 4.74763 14.4379 5.08967L22.1547 14.2404C22.6056 14.7913 22.8894 15.4551 22.9736 16.1562C23.0579 16.8573 22.9393 17.5674 22.6313 18.2057C22.3682 18.7437 21.9548 19.1977 21.439 19.5153C20.9232 19.8328 20.3261 20.0009 19.7168 20Z" fill="black"/>
</svg>
