<svg width="800" height="800" viewBox="0 0 800 800" fill="none" xmlns="http://www.w3.org/2000/svg">
<rect width="800" height="800" rx="122.667" fill="#F6F6F6"/>
<path d="M508.349 516.275C522.721 515.726 536.5 516.275 551.656 515.949C559.5 515.781 565.5 519.5 565.5 527C565.5 536.5 559 537.308 551.656 537.64C544.313 537.972 499.718 537.873 499.718 537.873C499.718 537.873 460.989 538.13 441.74 540.018C432.755 540.899 423.122 544.746 416.675 551.091C403.947 563.621 406.794 584.243 406.893 600.546C406.921 646.441 406.802 733.208 406.802 739.104C406.802 745 403.5 751.5 397 751.5C390.5 751.5 386.941 744.5 386.941 739.155C387.214 697.022 387.203 656.149 387.214 615.287C387.207 600.153 388.681 583.902 386.775 568.917C385.354 557.754 379.911 548.413 369.551 543.276C356 536.556 282.5 537.739 247 537.739C242.303 536.437 237.723 533.563 237.477 528.149C237.267 523.515 242.159 519.028 246.393 518.009C256.516 515.613 268.41 516.561 278.815 516.559L508.349 516.275Z" fill="#3D3D3D"/>
<path d="M439.747 331.223C459.359 333.669 477.457 378.635 506.848 381.342C535.377 383.969 551.462 351.393 570.804 336.363C574.177 333.742 578.485 331.264 582.936 332.077C585.88 332.613 588.283 334.579 589.9 337.032C596.484 347.024 565.252 372.021 558.234 378.787C553.618 383.237 548.842 388.189 545.292 393.553C543.344 396.498 542.165 400.49 541.4 403.931C534.236 436.195 573.605 452.472 586.917 473.824C588.621 476.554 590.236 480.454 589.119 483.705C587.728 487.752 584.462 489.322 580.821 491.094C559.182 488.263 542.553 445.931 515.452 441.305C485.846 436.252 470.161 473.308 449.625 487.161C446.338 489.377 442.204 491.129 438.177 490.238C435.645 489.679 432.922 487.75 431.77 485.385C424.519 470.496 473.602 443.126 479.434 418.853C487.111 386.898 445.491 369.939 432.995 348.408C431.34 345.557 430.118 341.92 431.174 338.645C432.452 334.687 436.262 332.891 439.747 331.223Z" fill="#3D3D3D"/>
<path d="M217.618 331.38C230.024 332.671 240.027 347.021 248.092 355.507C259.079 367.066 272.057 381.11 289.291 381.231C313.316 381.398 330.73 354.388 346.537 339.493C350.249 335.994 355.897 331.196 361.444 331.869C364.1 332.192 366.098 333.47 367.605 335.656C378.07 350.846 324.131 381.693 319.782 405.775C314.397 435.59 351.746 451.793 365.472 472.7C367.471 475.745 369.213 479.675 368.209 483.374C367.221 487.005 364.366 488.851 361.334 490.726C338.797 491.081 321.15 442.309 291.553 440.823C267.878 439.634 248.346 468.955 232.608 483.058C228.698 486.563 222.879 490.942 217.282 490.213C214.951 489.908 212.923 488.535 211.659 486.582C201.609 471.044 253.415 442.107 258.741 419.536C266.539 386.492 224.524 370.321 211.889 347.718C210.251 344.788 209.041 341.143 210.241 337.84C211.51 334.343 214.43 332.86 217.618 331.38Z" fill="#3D3D3D"/>
<path d="M394.19 209.188L394.893 209.164C398.22 209.081 401.007 209.392 403.454 211.888C409.765 218.321 407.275 233.478 407.442 241.816C407.618 250.637 410.251 259.059 415.855 265.978C431.312 285.06 457.826 282.257 479.736 281.888L521.544 281.568C531.149 281.442 542.118 280.277 551.543 281.931C554.57 282.462 558.056 283.592 560.155 285.959C561.831 287.848 562.116 290.363 561.724 292.768C561.066 296.807 558.012 299.001 554.946 301.335C538.942 303.751 522.011 301.791 505.834 301.748L405.142 301.684L260.695 302.286C254.288 302.268 245.202 302.559 240.503 297.437C238.693 295.464 238.007 293.051 238.319 290.395C238.788 286.407 242.598 283.266 246.26 282.195C252.61 280.337 262.026 281.477 268.676 281.515L319.8 281.79C332.649 281.88 346.264 282.897 358.964 280.596C363.878 279.707 368.617 277.975 372.677 275.032C391.4 261.453 384.001 237.125 387.64 218.535C388.553 213.873 390.279 211.782 394.19 209.188Z" fill="#3D3D3D"/>
<path d="M285.131 70.0156C288.393 70.1522 291.435 70.33 293.947 72.651C300.889 79.0633 298.526 95.0505 299.094 103.877C299.794 114.737 302.258 124.154 310.056 132.237C328.937 151.807 356.579 137.924 367.953 148.714C369.525 150.207 370.346 152.186 370.395 154.339C370.708 167.894 339.59 164.668 330.987 165.591C324.641 166.27 317.572 167.913 312.044 171.176C287.65 185.577 308.247 212.858 292.914 228.624C290.753 229.65 288.524 230.357 286.091 230.195C268.696 229.039 281.45 188.495 268.729 173.938C257.928 161.577 237.244 165.7 222.615 164.416C218.531 164.057 212.78 163.2 210.237 159.505C208.866 157.511 208.089 154.619 208.791 152.221C211.657 142.431 237.884 144.603 246.332 143.288C248.583 142.959 250.782 142.419 252.928 141.667C255.075 140.916 257.13 139.967 259.093 138.821C283.689 124.145 270.553 100.366 276.648 79.8143C278.151 74.7467 280.532 72.4478 285.131 70.0156Z" fill="#3D3D3D"/>
<path d="M505.3 70.1279C508.211 70.147 511.168 70.3978 513.568 72.2172C520.958 77.8199 517.615 97.6092 518.68 106.252C521.109 125.986 533.711 140.792 553.863 143.829C563.882 145.339 580.555 141.756 588.52 148.562C590.092 149.903 591.039 151.537 591.141 153.642C591.257 156.036 590.523 158.511 588.811 160.241C582.283 166.846 566.781 165.03 558.04 165.19C534.895 165.612 518.949 174.955 518.401 199.962C518.24 207.295 519.583 216.309 517.222 223.342C516.462 225.606 514.98 227.195 513.351 228.886C511.382 229.737 509.048 230.759 506.836 230.569C493.877 229.448 498.372 195.419 496.164 185.808C495.362 182.312 493.331 178.777 491.032 176.049C474.55 156.496 440.422 171.74 431.473 160.956C429.888 159.044 429.459 155.363 429.928 152.985C432.286 141.009 455.907 144.991 464.95 144.073C466.348 143.943 467.733 143.733 469.105 143.443C470.479 143.152 471.83 142.783 473.16 142.335C474.49 141.887 475.789 141.364 477.058 140.766C478.326 140.167 479.556 139.497 480.746 138.757C504.856 123.465 493.825 99.6239 498.493 79.6345C499.601 74.8955 501.212 72.7284 505.3 70.1279Z" fill="#3D3D3D"/>
</svg>
