<svg width="150" height="150" viewBox="0 0 150 150" fill="none" xmlns="http://www.w3.org/2000/svg">
<rect width="150" height="150" rx="23" fill="#F6F6F6"/>
<path fill-rule="evenodd" clip-rule="evenodd" d="M35.9136 49.1199L35.8245 49.1248L35.7361 49.1377C28.476 50.1941 21.7643 53.0097 17.0543 59.3171C12.605 65.2749 11.2316 73.2136 12.2651 80.2704C13.2479 86.9826 16.5588 93.1072 22.1394 97.2326C28.3227 101.804 36.2229 103.454 43.6858 102.334C48.7717 101.571 53.0472 99.4604 56.9479 96.2157C55.5615 94.835 54.1702 93.489 52.6587 92.2426C49.071 95.0441 45.246 96.972 40.6025 97.2272C35.0028 97.3392 29.9901 95.8948 26.0675 92.1466L26.0674 92.1465C21.8701 88.1365 19.7554 82.2355 19.6668 76.2998C19.5758 70.2068 21.4647 64.1903 25.6232 59.9279L25.6233 59.9278C29.1621 56.2999 33.8026 54.4091 38.9035 54.3585C44.1262 54.3067 48.3966 56.589 52.3409 59.7707L57.2201 55.4587L55.0472 54.019C48.8974 49.9441 43.1021 48.7224 35.9136 49.1199Z" fill="#3D3D3D"/>
<path d="M64.125 50.6011C64.125 52.5793 64.125 69.656 64.125 74.2498C64.125 78.8435 64.875 91.6873 70.5871 97.7593L70.5872 97.7595C74.1595 101.377 79.2279 102.663 83.8211 102.656C86.1863 102.652 88.6542 102.231 90.8838 101.433C92.625 100.81 93.3983 100.074 94.0354 99.6632L93.1875 97.4998C88.2134 98.1705 81.7637 97.474 78.1933 94.7571C74.803 92.1773 73.1383 87.828 72.5456 83.2374C72.1011 79.7939 72.1215 76.2791 72.1427 72.649L72.1427 72.6488C72.1855 65.2788 72.1413 57.9089 72.2205 50.5391C69.5218 50.564 66.8236 50.6011 64.125 50.6011Z" fill="#3D3D3D"/>
<path fill-rule="evenodd" clip-rule="evenodd" d="M128.947 50.6037C128.947 59.6631 128.931 68.7226 128.919 77.7821C128.908 86.2022 128.947 94.622 128.947 103.042H121.687C121.687 94.622 121.696 86.202 121.693 77.7821C121.724 68.7203 121.74 59.659 121.74 50.5972C124.142 50.5904 126.544 50.5891 128.947 50.6037Z" fill="#3D3D3D"/>
<path fill-rule="evenodd" clip-rule="evenodd" d="M110.119 50.6172H103.373L103.274 74.0627C103.278 78.2985 103.337 98.806 103.274 103.041H110.189C110.189 93.3832 110.063 83.7218 110.042 74.0627C110.042 66.2474 110.119 58.4323 110.119 50.6172Z" fill="#3D3D3D"/>
<path d="M108.047 24.9122C113.276 30.1413 118.564 35.3126 123.892 40.4409L126.958 37.9137C123.818 33.0595 120.528 28.3025 117.284 23.5181C114.215 24.0506 111.13 24.4719 108.047 24.9122Z" fill="#3D3D3D"/>
</svg>
