<svg width="383" height="162" viewBox="0 0 383 162" fill="none" xmlns="http://www.w3.org/2000/svg">
<path d="M230.99 1C250.603 3.44649 268.7 48.412 298.091 51.1189C326.62 53.7463 342.705 21.1704 362.047 6.14065C365.42 3.51953 369.729 1.04127 374.179 1.85412C377.124 2.39073 379.526 4.35617 381.144 6.80901C387.727 16.8013 356.496 41.7981 349.477 48.5644C344.861 53.0145 340.086 57.9662 336.536 63.3307C334.587 66.2757 333.408 70.2669 332.643 73.7088C325.48 105.972 364.848 122.25 378.161 143.601C379.864 146.332 381.48 150.231 380.363 153.482C378.972 157.529 375.705 159.099 372.065 160.871C350.425 158.04 333.797 115.709 306.695 111.082C277.089 106.029 261.404 143.085 240.869 156.939C237.582 159.155 233.447 160.906 229.421 160.015C226.889 159.456 224.166 157.528 223.014 155.162C215.762 140.274 264.846 112.903 270.677 88.6306C278.354 56.6754 236.734 39.7167 224.239 18.1858C222.583 15.3344 221.361 11.6973 222.418 8.42205C223.696 4.46417 227.505 2.66856 230.99 1Z" stroke="#3D3D3D" stroke-linejoin="round"/>
<path d="M8.86134 1.15771C21.2679 2.44843 31.2702 16.7988 39.336 25.2845C50.3227 36.8438 63.3007 50.8876 80.5347 51.0083C104.56 51.175 121.973 24.1652 137.781 9.27036C141.493 5.7713 147.14 0.973576 152.687 1.64672C155.343 1.969 157.341 3.24703 158.849 5.43315C169.314 20.6233 115.374 51.4703 111.025 75.5525C105.641 105.368 142.989 121.571 156.715 142.478C158.715 145.523 160.456 149.452 159.453 153.151C158.465 156.782 155.609 158.628 152.577 160.503C130.041 160.859 112.393 112.086 82.7969 110.6C59.1212 109.411 39.5896 138.733 23.852 152.835C19.9416 156.341 14.1228 160.719 8.52562 159.99C6.19485 159.686 4.16689 158.312 2.90281 156.36C-7.14711 140.822 44.6589 111.885 49.9849 89.3138C57.7826 56.2695 15.7671 40.0983 3.13243 17.4957C1.49476 14.565 0.284951 10.9198 1.48437 7.61765C2.75378 4.12017 5.67398 2.63736 8.86134 1.15771Z" stroke="#3D3D3D" stroke-linejoin="round"/>
</svg>
