<svg width="554" height="150" viewBox="0 0 554 150" fill="none" xmlns="http://www.w3.org/2000/svg">
<path d="M400.505 5.55355C403.783 5.39217 413.011 4.93135 415.388 6.86531C415.697 7.76294 415.914 8.53355 415.616 9.49534C414.607 12.7462 405.566 12.7942 402.016 15.2628C399.608 16.9376 398.005 19.6 397.308 22.4193C395.013 31.695 395.717 53.6548 395.707 63.9461L395.688 124.113C395.698 132.332 396.739 141.491 395.235 149.561C393.205 149.901 391.152 149.924 389.097 150C384.127 144.773 379.879 138.843 375.34 133.244L348.877 100.705L316.436 60.8799C309.315 52.1791 302.022 43.7465 295.396 34.6497C295.164 52.7427 295.108 70.8357 295.227 88.9287C295.277 100.317 294.984 111.754 296.079 123.104C296.42 126.637 296.809 132.435 299.002 135.372C303.188 140.978 311.383 141.332 317.754 142.222L317.625 147.906C306.232 148.083 294.821 147.907 283.427 147.879C277.859 147.866 271.503 148.465 266.019 147.673C265.352 146.461 265.562 144.943 265.579 143.596C267.743 140.324 276.384 141.035 280.202 138.228C283.505 135.8 284.374 132.105 284.937 128.29C285.784 122.542 285.812 116.56 285.994 110.751C286.408 97.583 286.223 84.3868 286.272 71.2134C286.323 57.7282 287.527 43.7939 285.98 30.3787C285.562 26.7467 284.973 23.4977 282.682 20.5281C277.731 14.1131 270.22 12.8765 262.712 11.8421L262.744 5.74734C273.395 5.64429 284.032 5.50559 294.681 5.82186C301.456 13.4008 307.754 21.4413 314.251 29.2613L356.619 80.2694C366.696 92.4648 376.505 104.831 387.168 116.531C386.251 110.352 386.724 103.961 386.733 97.732L386.597 57.815C386.551 47.899 386.917 37.7366 385.52 27.8984C385.041 24.5256 384.276 20.3265 382.101 17.6122C378.005 12.5051 369.787 12.4086 363.826 11.7663L363.76 5.80112C375.997 5.51724 388.281 6.05842 400.505 5.55355Z" fill="#212121"/>
<path d="M138.707 5.82509C151.73 5.27874 164.818 5.70649 177.847 5.71362C197.28 5.59696 216.713 5.62936 236.146 5.81083C236.578 16.4184 237.315 26.9916 237.992 37.585C235.787 37.7764 233.581 37.9421 231.372 38.0821C231.177 36.57 230.901 35.0463 230.573 33.5576C229.26 27.5976 226.802 20.0679 221.321 16.6906C214.528 12.5038 184.958 12.3626 176.808 14.4339C175.862 22.3104 175.935 30.367 175.915 38.2927C175.906 48.9532 175.979 59.6131 176.132 70.2723C187.105 70.3047 198.904 71.1505 209.719 69.3818C220.174 67.6721 216.525 59.959 220.964 54.3457C221.455 53.7261 222.069 53.3424 222.851 53.2355C223.76 53.1097 224.687 53.2996 225.368 53.9613C226.177 54.7488 226.471 55.9945 226.608 57.0742C227.003 60.1813 226.594 63.5708 226.626 66.7142C226.724 76.4598 226.826 86.2981 226.325 96.032L220.572 95.5997C219.653 91.2146 218.9 85.1049 215.414 81.9908C209.43 76.6465 184.332 78.4197 176.214 78.7016C175.908 85.3369 176.007 91.9606 176.099 98.5978C176.151 108.165 174.241 126.038 178.56 134.419C179.807 136.839 182.608 138.2 185.091 138.968C194.354 141.836 219.347 141.385 227.549 136.675C235.281 132.234 239.816 120.784 242.093 112.712C244.325 112.796 246.568 113.04 248.796 113.226C248.315 118.462 246.955 123.646 245.795 128.763C244.403 135.173 242.884 141.552 241.236 147.9L135.853 147.843L135.78 142.15C141.485 141.2 149.391 141.794 153.9 137.591C157.404 134.325 157.695 128.58 157.806 124.098C158.278 105.012 157.792 85.7809 157.794 66.6792L157.835 43.3162C157.858 38.1981 158.07 32.986 157.737 27.8782C157.514 24.4556 157.213 19.9999 155.343 17.0445C151.326 10.695 142.619 14.8979 139.436 10.8019C138.238 9.26071 138.578 7.63785 138.707 5.82509Z" fill="#212121"/>
<path d="M11.9585 0C17.9291 0.540522 18.8568 5.0656 24.9602 5.45188C32.7091 5.94249 40.5812 5.69493 48.3437 5.67937C63.0743 5.55407 77.8049 5.518 92.5355 5.57114C100.697 5.62882 109.148 5.40068 117.253 6.41302C113.869 16.1372 103.116 28.9944 96.9286 37.6693L79.1091 63.1205L26.9292 138.639C35.224 140.064 43.9467 139.791 52.3452 139.907C63.6989 140.065 75.2528 140.514 86.5507 139.179C90.5302 138.709 94.5628 137.921 98.2357 136.266C108.438 131.669 112.548 118.696 116.169 109.03C118.205 109.66 120.23 110.331 122.258 110.983C120.863 121.733 118.234 132.278 115.855 142.841L114.663 147.96L46.7469 147.913C33.5208 147.951 20.0096 148.662 6.82502 147.776C4.56817 147.624 2.275 147.354 0.157543 146.531L0 145.713C1.89638 139.24 31.4144 100.003 37.1586 91.8745C55.4443 66.0064 73.5942 40.0431 91.6084 13.9849C84.4994 12.9946 77.511 13.5014 70.3663 13.5137C58.708 13.5331 46.7832 13.073 35.2059 14.62C32.6436 14.9622 30.0153 15.5008 27.6845 16.6544C20.8906 20.0168 17.2496 34.0095 14.878 40.8716C13.2157 40.9112 10.8804 41.2501 9.56294 40.0868C8.49059 35.4288 9.87414 29.1376 10.1977 24.3591C10.7481 16.2267 10.9808 8.10135 11.9585 0Z" fill="#212121"/>
<path d="M443.997 0.220947C448.6 0.440656 449.486 2.64745 452.74 5.36756C466.011 6.09733 544.539 4.47642 548.339 6.36955C548.37 6.48945 548.418 6.6061 548.432 6.72924C548.666 8.74875 546.296 12.0509 545.225 13.7236C538.374 24.4245 530.557 34.6783 523.266 45.0979C501.552 76.1274 479.058 106.865 458.485 138.657C465.918 140.083 473.482 139.699 481.005 139.858C493.643 140.124 506.805 140.806 519.361 139.16C522.809 138.709 526.246 137.948 529.379 136.397C539.609 131.329 544.02 119.581 547.43 109.443C549.63 109.64 551.829 110.151 554 110.565C552.34 121.423 549.783 132.07 547.351 142.776L546.108 147.952C521.035 147.792 495.961 147.759 470.887 147.855C460.013 147.861 449.09 148.371 438.225 147.994C436.441 147.932 434.141 147.938 432.466 147.271C431.9 147.046 431.961 146.78 431.757 146.254C432.024 144.315 432.912 142.682 433.903 141.024C436.349 136.935 439.374 133.104 442.148 129.227L456.007 109.728L502.514 43.5975L514.783 26.12C517.497 22.2462 520.401 18.3919 522.724 14.268L523.004 13.7664C516.872 13.4501 510.737 13.7405 504.6 13.6906C493.495 13.6005 468.079 11.8 458.997 16.9253C454.283 19.5858 451.304 26.1401 449.566 31.0339C448.778 33.2511 448.121 39.3466 446.042 40.4892C444.547 41.3103 442.261 40.6473 440.675 40.3511C441.288 27.1835 441.418 13.1364 443.997 0.220947Z" fill="#212121"/>
</svg>
