<svg width="736" height="144" viewBox="0 0 736 144" fill="none" xmlns="http://www.w3.org/2000/svg">
<g clip-path="url(#clip0_61_4)">
<path d="M314.36 4.89696C325.571 4.18896 337.071 4.72897 348.318 4.72997C359.705 4.73197 371.154 4.17495 382.528 4.83495C393.753 5.48595 404.966 8.00594 412.684 16.8169C417.503 22.3199 419.698 29.324 419.185 36.6C418.586 45.096 414.27 52.316 407.505 57.394C405.067 59.224 402.372 60.658 400.078 62.681C399.974 62.773 399.872 62.8669 399.77 62.9599C404.431 64.3189 409.335 65.4539 413.627 67.7789C420.248 71.3659 424.989 78.107 427.05 85.26C429.852 94.984 427.651 104.207 422.924 112.896C421.693 114.869 420.251 116.819 418.656 118.514C412.242 125.328 403.251 129.644 394.231 131.772C382.706 134.491 370.347 133.695 358.573 133.689C343.177 133.681 327.749 133.475 312.359 133.949C311.774 110.173 312.385 86.251 312.38 62.457C312.375 45.025 311.642 27.459 311.981 10.052C312.009 8.65796 311.96 6.59995 312.788 5.44295C313.118 4.98095 313.837 5.00696 314.36 4.89696ZM347.738 78.1059C347.213 88.5279 347.004 99.6999 347.763 110.097C357.954 110.465 368.123 111.123 378.227 109.293C383.335 107.923 387.337 105.972 390.082 101.159C390.33 100.726 390.556 100.282 390.761 99.827C390.966 99.3716 391.148 98.9076 391.307 98.435C391.466 97.9616 391.602 97.482 391.714 96.996C391.827 96.51 391.915 96.0196 391.98 95.5249C392.045 95.0303 392.085 94.5333 392.102 94.034C392.118 93.5353 392.11 93.037 392.077 92.539C392.045 92.0416 391.988 91.5466 391.907 91.0539C391.826 90.5613 391.722 90.074 391.594 89.592C390.549 85.8 387.866 82.7079 384.382 80.9209C378.024 77.6599 368.382 77.36 361.327 77.651C356.796 77.7636 352.267 77.9153 347.738 78.1059ZM347.722 55.117C357.031 55.506 371.429 57.3699 379.379 51.5159C382.2 48.5239 384.17 45.355 384.002 41.069C383.881 37.957 382.689 34.908 380.371 32.785C373.157 26.18 356.682 28.021 347.556 28.229C347.532 37.112 347.112 46.271 347.722 55.117Z" fill="#212121"/>
<path d="M73.007 0.401009C81.605 -0.198991 90.894 0.916008 99.153 3.31901C117.277 8.59301 130.587 21.527 139.492 37.785C133.068 40.843 126.311 43.142 119.705 45.771C114.949 47.663 110.303 49.851 105.583 51.837C103.55 49.528 101.908 46.736 100.113 44.228C95.569 37.879 89.709 33.324 82.059 31.41C73.662 29.31 64.248 30.902 56.874 35.389C47.5976 41.033 41.6061 51.125 39.176 61.532C36.3401 73.677 38.0564 86.707 44.7037 97.349C49.8355 105.565 57.362 111.54 66.887 113.695C75.226 115.582 85.013 115.147 92.391 110.457C99.046 106.227 102.703 99.691 104.433 92.169C94.535 90.799 84.233 91.489 74.274 91.747C74.2033 82.6357 74.2406 73.525 74.386 64.415C81.371 64.663 88.401 64.507 95.392 64.509C112.622 64.3943 129.852 64.4077 147.081 64.549C146.391 83.379 143.022 104.069 130.941 119.145C119.885 132.943 103.253 140.792 85.85 142.608C64.164 144.871 41.5528 140.906 24.322 126.795C10.304 115.315 2.69955 99.175 0.929252 81.306C-1.04295 61.399 3.51165 40.841 16.4567 25.242C30.9211 7.81201 51.3694 2.39101 73.007 0.401009Z" fill="#212121"/>
<path d="M203.869 30.2269C216.942 30.1029 230.207 29.6799 243.254 30.6169C245.814 34.1429 247.696 38.4569 249.622 42.3639C254.024 51.2949 258.059 60.4149 262.384 69.3879C272.579 90.5419 284.309 112.373 293.509 133.773C281.482 133.584 269.324 134.348 257.324 133.713C254.575 126.674 251.335 119.966 247.959 113.21C246.7 113.188 245.432 113.089 244.173 113.026C228.836 113.084 213.603 112.396 198.262 113.211C194.109 119.312 191.495 126.983 188.701 133.785C177.013 134.967 165.021 133.314 153.281 133.975C165.047 110.326 176.579 86.5622 187.876 62.6849L196.848 43.7659C198.986 39.2499 200.993 34.3209 203.869 30.2269ZM206.672 93.5459L224.104 93.6749C229.255 93.6939 234.418 93.7789 239.568 93.6369C236.981 87.9749 225.485 59.8829 222.819 57.1129C216.793 68.2059 211.112 81.6759 206.672 93.5459Z" fill="#212121"/>
<path d="M453.535 30.032C466.226 30.934 479.363 30.244 492.103 30.22L551.625 30.589C551.343 37.038 551.329 43.509 551.223 49.964C530.43 51.136 509.419 50.11 488.584 50.501C488.496 56.253 488.537 62.0043 488.708 67.755C508.04 68.106 527.394 68.213 546.722 68.739L546.458 87.723C531.819 89.342 516.535 88.445 501.812 88.319C497.421 88.2983 493.03 88.351 488.64 88.477C488.69 96.67 488.575 104.842 488.75 113.037C509.719 113.879 530.702 113.327 551.672 114.268C551.718 120.583 551.543 126.914 551.451 133.229C545.329 133.209 539.188 133.57 533.06 133.63L499.277 133.631C484.078 133.658 468.687 133.198 453.521 134.034C453.416 115.475 453.405 96.9146 453.488 78.354C453.329 62.2466 453.344 46.1393 453.535 30.032Z" fill="#212121"/>
<path d="M587.098 30.3651L642.553 30.1941C654.18 30.1391 666.177 29.5601 677.757 30.5961C677.591 37.1781 677.51 43.7611 677.513 50.3451C665.974 50.1171 654.392 50.2811 642.848 50.2831C633.681 50.2851 624.357 49.9521 615.223 50.7421C615.067 56.4501 614.889 62.1521 614.975 67.8621C625.354 67.7701 635.766 68.1311 646.152 68.1401C655.148 68.1481 664.533 67.6251 673.474 68.6301L673.355 88.6181L619.765 88.7101L614.828 88.8461C614.641 96.8971 614.524 105.008 614.864 113.055C635.868 113.995 656.782 113.494 677.794 113.517C677.91 120.239 677.721 126.991 677.668 133.715C665.859 134.149 654.001 133.765 642.185 133.683C621.609 133.508 601.033 133.471 580.456 133.57C579.794 113.244 580.486 92.6811 580.479 72.3251L580.393 47.2141C580.355 41.6631 580.109 36.0451 580.545 30.5081C582.724 30.4061 584.917 30.4071 587.098 30.3651Z" fill="#212121"/>
<path d="M717.522 101.494C717.793 101.473 718.065 101.458 718.338 101.449C718.61 101.441 718.882 101.44 719.155 101.445C719.427 101.45 719.699 101.462 719.971 101.481C720.242 101.5 720.513 101.525 720.784 101.556C721.055 101.588 721.324 101.627 721.593 101.672C721.862 101.717 722.129 101.769 722.395 101.827C722.661 101.885 722.926 101.95 723.189 102.021C723.452 102.092 723.713 102.17 723.972 102.254C724.231 102.338 724.487 102.428 724.742 102.525C724.997 102.622 725.249 102.725 725.499 102.834C725.748 102.943 725.995 103.058 726.239 103.179C726.483 103.3 726.724 103.427 726.962 103.56C727.199 103.693 727.434 103.832 727.665 103.976C727.896 104.121 728.123 104.271 728.346 104.427C728.57 104.582 728.79 104.743 729.005 104.91C729.22 105.076 729.432 105.248 729.639 105.425C729.846 105.602 730.049 105.783 730.248 105.97C730.446 106.157 730.639 106.348 730.828 106.545C731.017 106.741 731.201 106.942 731.38 107.147C731.559 107.352 731.733 107.562 731.902 107.776C732.071 107.989 732.234 108.207 732.392 108.429C732.55 108.651 732.702 108.877 732.849 109.106C732.996 109.335 733.137 109.568 733.273 109.804C733.408 110.041 733.538 110.28 733.662 110.523C733.785 110.766 733.903 111.011 734.015 111.259C734.126 111.508 734.232 111.759 734.331 112.012C734.43 112.266 734.523 112.522 734.61 112.78C734.697 113.038 734.778 113.298 734.852 113.56C734.926 113.823 734.993 114.087 735.054 114.352C735.115 114.617 735.17 114.884 735.218 115.152C735.266 115.42 735.307 115.689 735.342 115.96C735.377 116.23 735.405 116.501 735.426 116.772C735.447 117.043 735.462 117.315 735.47 117.588C735.478 117.86 735.479 118.132 735.474 118.404C735.469 118.677 735.458 118.949 735.439 119.22C735.42 119.492 735.395 119.763 735.363 120.034C735.331 120.304 735.292 120.573 735.247 120.842C735.202 121.111 735.15 121.378 735.092 121.644C735.033 121.91 734.968 122.175 734.897 122.438C734.826 122.701 734.748 122.962 734.664 123.221C734.58 123.48 734.49 123.736 734.393 123.991C734.296 124.246 734.193 124.498 734.084 124.747C733.975 124.997 733.859 125.244 733.738 125.487C733.617 125.731 733.49 125.972 733.357 126.21C733.224 126.447 733.085 126.681 732.94 126.912C732.795 127.143 732.645 127.371 732.49 127.594C732.334 127.817 732.173 128.037 732.006 128.252C731.84 128.468 731.668 128.679 731.491 128.886C731.314 129.093 731.133 129.296 730.946 129.494C730.759 129.693 730.568 129.886 730.371 130.075C730.175 130.264 729.974 130.447 729.768 130.626C729.563 130.805 729.353 130.979 729.14 131.148C728.926 131.317 728.708 131.48 728.486 131.637C728.264 131.795 728.038 131.948 727.809 132.095C727.58 132.242 727.347 132.383 727.11 132.518C726.874 132.653 726.634 132.783 726.391 132.907C726.148 133.03 725.903 133.148 725.655 133.259C725.406 133.371 725.155 133.477 724.901 133.576C724.648 133.675 724.392 133.768 724.134 133.855C723.875 133.942 723.615 134.022 723.353 134.096C723.091 134.169 722.827 134.237 722.562 134.298C722.296 134.359 722.029 134.413 721.761 134.461C721.493 134.509 721.224 134.55 720.954 134.585C720.683 134.62 720.412 134.648 720.141 134.669C719.87 134.69 719.598 134.705 719.326 134.713C719.053 134.721 718.781 134.722 718.509 134.717C718.236 134.712 717.964 134.7 717.693 134.681C717.422 134.662 717.151 134.637 716.88 134.605C716.609 134.573 716.34 134.534 716.071 134.489C715.803 134.444 715.536 134.392 715.27 134.334C715.004 134.275 714.74 134.21 714.477 134.139C714.214 134.068 713.953 133.99 713.694 133.906C713.435 133.822 713.178 133.732 712.923 133.635C712.669 133.538 712.417 133.435 712.167 133.326C711.918 133.217 711.671 133.102 711.427 132.981C711.184 132.86 710.943 132.732 710.705 132.599C710.468 132.466 710.234 132.328 710.003 132.183C709.772 132.038 709.545 131.888 709.321 131.733C709.098 131.577 708.878 131.416 708.663 131.25C708.448 131.083 708.236 130.912 708.029 130.735C707.822 130.558 707.62 130.376 707.421 130.189C707.223 130.002 707.03 129.811 706.841 129.615C706.652 129.418 706.469 129.218 706.29 129.013C706.111 128.808 705.937 128.598 705.768 128.384C705.599 128.17 705.436 127.952 705.279 127.73C705.121 127.509 704.968 127.283 704.821 127.054C704.674 126.825 704.533 126.592 704.398 126.356C704.263 126.119 704.133 125.88 704.009 125.637C703.886 125.394 703.768 125.149 703.656 124.901C703.545 124.652 703.439 124.401 703.34 124.148C703.241 123.895 703.148 123.639 703.061 123.381C702.974 123.123 702.894 122.863 702.82 122.601C702.746 122.338 702.679 122.074 702.618 121.809C702.557 121.544 702.502 121.277 702.454 121.009C702.406 120.741 702.365 120.472 702.33 120.202C702.295 119.932 702.267 119.661 702.246 119.39C702.225 119.119 702.21 118.847 702.202 118.575C702.194 118.302 702.193 118.03 702.198 117.758C702.203 117.486 702.215 117.214 702.233 116.942C702.252 116.671 702.277 116.4 702.309 116.129C702.341 115.859 702.38 115.59 702.425 115.321C702.47 115.052 702.522 114.785 702.58 114.519C702.639 114.253 702.704 113.989 702.775 113.726C702.846 113.463 702.923 113.203 703.007 112.944C703.092 112.685 703.182 112.428 703.279 112.173C703.376 111.919 703.478 111.667 703.587 111.417C703.696 111.168 703.812 110.921 703.933 110.678C704.054 110.434 704.181 110.193 704.314 109.955C704.447 109.718 704.585 109.484 704.73 109.253C704.875 109.022 705.025 108.795 705.18 108.572C705.335 108.348 705.496 108.128 705.663 107.913C705.83 107.698 706.001 107.486 706.178 107.279C706.355 107.072 706.536 106.87 706.723 106.671C706.91 106.473 707.101 106.28 707.297 106.091C707.494 105.902 707.695 105.718 707.9 105.539C708.105 105.36 708.315 105.187 708.528 105.018C708.742 104.849 708.96 104.686 709.182 104.528C709.403 104.37 709.629 104.218 709.858 104.071C710.087 103.924 710.32 103.783 710.556 103.647C710.793 103.512 711.032 103.382 711.275 103.259C711.517 103.135 711.762 103.017 712.011 102.906C712.259 102.794 712.51 102.688 712.764 102.589C713.017 102.49 713.273 102.397 713.531 102.31C713.789 102.223 714.049 102.143 714.311 102.069C714.573 101.995 714.837 101.927 715.103 101.866C715.368 101.805 715.635 101.751 715.903 101.703C716.171 101.655 716.44 101.613 716.71 101.578C716.98 101.543 717.251 101.515 717.522 101.494Z" fill="#212121"/>
</g>
<defs>
<clipPath id="clip0_61_4">
<rect width="736" height="144" fill="white"/>
</clipPath>
</defs>
</svg>
