<svg width="722" height="150" viewBox="0 0 722 150" fill="none" xmlns="http://www.w3.org/2000/svg">
<g clip-path="url(#clip0_61_33)">
<path d="M561.888 71.628C561.91 71.5992 561.933 71.5708 561.953 71.5415C562.805 70.3251 562.993 65.0724 563.423 63.2358C564.409 59.0306 565.877 55.2917 567.873 51.4704C573.154 41.3594 581.116 34.862 592.369 32.5276C601.712 30.5891 612.46 32.072 620.498 37.3621C628.95 42.9238 633.992 51.5744 635.991 61.3482C636.526 63.9529 638.234 75.5196 637.021 77.3C636.999 77.3308 636.977 77.3597 636.955 77.3894C628.408 77.8912 619.655 77.5534 611.092 77.5023C596.645 77.339 582.198 77.3554 567.752 77.5517C567.776 77.5797 567.801 77.607 567.825 77.6358C568.831 78.887 569.063 87.1975 569.495 89.4704C569.926 91.7319 570.851 94.0571 571.743 96.1762C576.043 106.393 583.945 113.769 595.219 115.385C603.47 116.567 612.592 114.582 619.286 109.543C623.992 106 626.782 101.038 628.891 95.6588C629.379 94.4161 630.01 93.0375 630.198 91.7128C630.268 91.2036 630.335 90.6253 630.181 90.129C632.281 90.2089 634.382 90.2539 636.483 90.264C637.201 92.0091 634.727 98.0497 633.942 99.9308C630.493 108.206 624.758 114.772 616.351 118.222C606.526 122.255 594.589 122.606 584.745 118.454C575.738 114.655 569.111 107.459 565.465 98.4435C565.144 97.6323 564.846 96.8127 564.572 95.9844C564.298 95.1562 564.047 94.3208 563.821 93.4782C563.595 92.6357 563.394 91.7873 563.215 90.9331C563.038 90.079 562.886 89.2204 562.757 88.3575C562.512 86.7579 562.865 83.9755 561.988 82.6417C561.998 82.6214 562.011 82.6018 562.02 82.5812C562.209 82.187 562.072 72.2027 561.888 71.628ZM567.791 71.6655C579.182 71.8427 590.572 71.8852 601.963 71.793L620.598 71.8116C623.841 71.8244 627.478 72.1563 630.678 71.6885C631.792 69.7049 630.285 64.4661 629.667 62.2673C627.201 53.496 622.494 45.6403 614.354 41.0542C608.749 37.8975 602.973 37.25 596.687 37.5928C588.543 38.7485 581.426 42.8035 576.472 49.4098C573.748 53.0378 571.625 57.414 570.321 61.7542C569.659 63.9615 569.081 70.363 567.791 71.6655Z" fill="#212121"/>
<path d="M172.022 49.3744L172.131 49.3057C173.638 48.3511 175.18 44.2913 176.375 42.6284C183.262 33.0435 195.735 30.0518 206.868 32.4203C213.313 33.7918 218.31 37.134 221.897 42.6698C224.093 46.058 225.342 50.1788 225.853 54.1747C226.532 59.496 226.246 64.9697 226.164 70.317C226.117 75.8094 226.102 81.3018 226.118 86.794L226.161 109.025C226.163 111.434 226.469 116.658 226.012 118.703C225.973 118.88 225.886 119.041 225.782 119.188C223.716 119.25 221.629 119.306 219.565 119.178C219.94 118.603 219.922 118.002 219.94 117.34C220.289 104.729 220.005 92.0815 220.05 79.4655L220.105 69.3225C220.128 67.3365 220.41 64.7536 220.007 62.8408C219.961 62.6204 219.836 62.3837 219.716 62.1964C219.948 61.8292 220.031 61.4991 220.033 61.0693C220.042 59.1377 219.829 52.9927 218.62 51.7606C218.904 51.0149 218.323 49.9228 218.017 49.2374C215.808 44.2957 212.662 40.7794 207.523 38.848C201.449 36.5661 194.133 37.058 188.269 39.7523C182.804 42.2642 177.476 47.8409 175.387 53.5729C174.79 55.2127 174.503 57.083 173.674 58.6168C173.84 59.2712 173.074 64.1945 173.048 65.4749C172.912 72.3136 173 79.1759 173.017 86.0167C173.022 87.856 173.443 93.7504 172.705 95.0336C172.991 98.3941 173.663 116.39 172.795 118.827L172.677 119.063C171.148 119.754 167.832 119.297 166.132 119.254C166.52 118.675 166.502 118.011 166.521 117.341C166.88 104.74 166.48 92.1039 166.49 79.495L166.502 65.15C166.504 61.6617 166.693 57.9112 166.107 54.4673C165.47 50.7309 163.711 46.1948 161.067 43.4159C157.439 39.6032 152.353 37.5427 147.13 37.4189C140.171 37.2537 133.594 39.9658 128.584 44.7448C128.335 44.9872 128.089 45.234 127.848 45.4851C127.607 45.7362 127.37 45.9915 127.138 46.2509C126.905 46.5102 126.678 46.7736 126.455 47.041C126.232 47.3083 126.013 47.5795 125.8 47.8545C125.586 48.1296 125.378 48.4083 125.174 48.6906C124.97 48.9729 124.771 49.2588 124.578 49.5481C124.384 49.8375 124.195 50.1301 124.012 50.426C123.829 50.7219 123.65 51.021 123.477 51.3231C123.304 51.6253 123.137 51.9304 122.974 52.2385C122.812 52.5465 122.655 52.8573 122.504 53.171C122.353 53.4845 122.207 53.8005 122.067 54.1192C121.926 54.4379 121.792 54.759 121.663 55.0823C121.533 55.4057 121.41 55.7313 121.293 56.059C121.175 56.3867 121.063 56.7164 120.957 57.0481C120.851 57.3798 120.751 57.7132 120.657 58.0484C120.562 58.3835 120.474 58.7202 120.391 59.0585C118.459 66.7729 119.157 77.3971 119.222 85.4835C119.312 96.7179 119.526 108.026 119.265 119.255C117.614 119.291 114.343 119.722 112.898 118.988C113.12 112.374 112.831 105.664 112.821 99.0411L112.769 60.7413C112.738 55.499 112.748 50.2568 112.799 45.0147C112.814 41.5788 112.705 38.0963 112.98 34.6708C113.006 34.5266 113.033 34.1438 113.14 34.064C114.097 33.3483 117.995 33.7933 119.304 33.813C119.057 36.593 119.317 39.4662 119.455 42.2475C119.481 43.63 119.288 48.0039 119.97 48.9563C120.396 48.7103 120.968 47.5116 121.114 47.0148C121.138 46.9352 121.15 46.8479 121.161 46.7655C122.274 44.9666 123.325 43.1544 124.675 41.5163C128.426 36.9626 134.16 33.872 139.857 32.5215C147.113 30.8013 156.068 31.8392 162.444 35.8109C166.364 38.2526 170.72 43.0649 171.801 47.6674C171.931 48.2206 171.976 48.8083 172.022 49.3744Z" fill="#212121"/>
<path d="M491.043 33.88C494.546 33.569 498.157 33.7519 501.676 33.7558L519.471 33.7465L539.601 33.73C543.492 33.7291 547.487 33.5679 551.361 33.8757C551.389 33.916 551.417 33.9552 551.443 33.9962C552.113 35.0726 551.667 38.418 551.331 39.6067C551.055 40.5854 550.414 41.4077 549.82 42.218C547.574 45.2831 545.081 48.1989 542.74 51.1957L525.051 73.826L504.216 100.637C501.219 104.475 498.351 108.417 495.251 112.175C494.732 112.804 494.251 113.363 493.527 113.763C507.336 113.957 521.168 113.78 534.979 113.78L546.742 113.786C549.094 113.792 551.498 113.71 553.841 113.908C553.982 114.129 554.067 114.333 554.106 114.593C554.301 115.855 554.42 118.062 553.653 119.09C551.79 119.784 534.058 119.287 530.421 119.286L486.053 119.306C486.066 119.286 486.081 119.266 486.092 119.245C486.114 119.21 486.131 119.174 486.152 119.139C487.139 117.406 485.641 114.687 486.644 113.118C489.196 109.128 492.493 105.448 495.385 101.695L524.884 63.4846C529.723 57.2663 534.76 51.194 539.484 44.8846C540.355 43.7219 543.048 40.581 543.238 39.2839C537.5 38.9093 531.426 39.2332 525.647 39.2306L490.364 39.2291C491.481 37.868 490.08 35.119 491.043 33.88Z" fill="#212121"/>
<path d="M340.281 0.584646C342.355 0.54527 344.429 0.546017 346.503 0.586889C346.938 1.17847 346.917 1.65635 346.949 2.38055C347.138 6.75263 346.784 11.2567 346.787 15.647L346.96 45.5488L347.066 76.581C347.097 80.4459 347.147 84.3028 347.094 88.1683C347.075 89.458 347.209 90.9968 346.99 92.2584C346.958 92.4459 346.886 92.6223 346.795 92.7892C346.81 92.8133 346.824 92.8369 346.837 92.8616C347.006 93.1955 347.27 117.88 346.897 118.987C345.276 119.744 342.273 119.312 340.47 119.278C340.646 119.041 340.693 118.836 340.721 118.547C341.155 113.97 340.827 108.829 340.817 104.18L340.687 73.9967L340.569 28.3189C340.598 19.6352 341.114 10.8973 340.752 2.21381C340.724 1.56399 340.715 1.10451 340.281 0.584646Z" fill="#212121"/>
<path d="M85.5738 33.7776C87.6276 34.0187 89.7604 33.7449 91.8281 33.8673L91.9265 119.203C89.7904 119.232 87.6009 119.108 85.475 119.219C85.7978 117.216 85.4921 114.883 85.4488 112.834C85.3566 108.992 85.3149 105.15 85.3237 101.307C85.5274 88.2325 85.5379 75.1577 85.3553 62.0828C85.3013 52.7002 84.9814 43.14 85.5738 33.7776Z" fill="#212121"/>
<path d="M85.7474 0.584568C87.8272 0.571081 89.9345 0.492149 92.0105 0.60969C91.8265 6.3307 92.053 11.9901 91.691 17.7182C89.6254 17.7897 87.4619 17.6114 85.4208 17.7894C85.5977 16.1188 85.4483 14.3227 85.4344 12.6403C85.4058 9.1859 85.3744 5.75138 85.6215 2.30285C85.6646 1.73074 85.7182 1.15745 85.7474 0.584568Z" fill="#212121"/>
<path d="M256.371 47.5353C256.395 47.522 256.421 47.5097 256.445 47.4952C257.408 46.9275 258.734 44.3881 259.539 43.3962C260.245 42.5276 261.038 41.7065 261.838 40.9281C270.499 32.5179 283.089 30.1038 294.611 32.734C303.254 34.7066 311.218 39.8677 315.957 47.4271C324.043 60.3232 325.248 77.1841 321.897 91.7924C319.627 101.694 314.524 110.606 305.747 116.079C297.106 121.466 285.4 122.579 275.608 120.291C268.964 118.739 263.007 115.511 258.702 110.078C258.071 109.282 257.254 107.36 256.443 106.906C256.406 105.854 255.181 103.48 254.39 102.73C254.26 102.606 254.119 102.521 253.974 102.42C253.907 102.374 253.846 102.321 253.781 102.273C253.74 102.244 253.701 102.216 253.66 102.188C253.857 102.606 253.969 103.032 253.996 103.492C254.438 111.218 254.047 119.148 254.022 126.893C254.011 130.783 254.481 145.144 253.703 147.619C253.911 148.29 253.878 149.048 253.553 149.681C253.492 149.801 253.434 149.897 253.349 150H247.05C247.161 149.86 247.247 149.717 247.314 149.55C247.988 147.892 247.7 138.631 247.707 136.367L247.585 80.2075C247.535 69.7055 247.286 59.2407 247.568 48.7344C247.637 46.1855 248.268 35.8556 247.41 33.8772C249.357 33.7415 251.34 33.8066 253.293 33.8087C253.386 33.9256 253.467 34.0496 253.516 34.1922C253.796 35.0057 254.015 36.5447 253.62 37.3203C254.865 39.9793 253.365 50.0634 254.464 51.4404C255.246 51.0735 256.022 48.9178 256.337 48.0698C256.402 47.8946 256.402 47.718 256.371 47.5353ZM315.883 88.3985C316.599 87.4047 316.716 85.3173 316.841 84.1203C317.177 80.881 317.637 67.6914 315.859 65.4995C316.416 64.2629 314.337 59.0159 313.795 57.593C310.915 50.0241 305.521 43.321 298.018 39.9804C290.618 36.6861 281.132 36.5569 273.597 39.4586C266.566 42.1658 261.255 47.7045 258.247 54.5408C257.306 56.6826 256.527 58.924 255.849 61.1633C255.435 62.5305 255.288 64.6647 254.579 65.8352C254.93 67.0008 254.288 69.3416 254.199 70.648C253.948 74.3607 253.93 78.2111 254.043 81.9342C254.084 83.2691 254.938 86.7919 254.594 87.8456C254.611 87.8802 254.628 87.9143 254.642 87.9488C255.482 89.7928 255.545 92.268 256.154 94.262C258.656 102.471 264.214 110.183 272.398 113.411C280.215 116.494 290.598 116.499 298.276 113.122C305.942 109.751 311.233 103.097 314.199 95.4137C314.6 94.3728 316.319 89.5125 315.916 88.4751C315.907 88.449 315.894 88.4239 315.883 88.3985Z" fill="#212121"/>
<path d="M6.30103 90.8249C6.58438 97.1749 9.42572 104.135 14.1452 108.437C20.3545 114.096 28.8497 116.042 37.0621 115.64C44.3393 115.283 52.9497 113.539 58.0448 107.939C60.75 104.965 61.9026 100.724 61.7092 96.7644C61.5248 92.9903 60.0682 89.2507 57.2202 86.6706C44.4469 75.0987 13.818 81.4455 5.11099 63.7857C3.89171 61.3128 3.09963 58.6382 2.94507 55.8788C2.63267 50.3012 3.77933 44.9208 7.58663 40.6804C13.545 34.0442 22.8112 32.2347 31.3355 31.7984C40.5644 31.3262 50.8285 32.8165 57.9276 39.2422C62.9017 43.744 65.0535 50.3517 65.3611 56.8854C65.3957 57.6101 65.4382 58.3344 65.4889 59.0581C63.3662 59.0824 61.2435 59.0888 59.1207 59.0773C59.0929 53.6607 57.3264 47.805 53.3833 43.9256C48.1618 38.7885 40.5332 37.3605 33.4686 37.4411C26.5255 37.5202 18.3914 38.7263 13.3236 43.9152C13.1622 44.0802 13.0049 44.2489 12.8517 44.4215C12.6985 44.5941 12.5496 44.7704 12.405 44.9503C12.2604 45.1302 12.1202 45.3134 11.9845 45.5C11.8488 45.6868 11.7178 45.8767 11.5914 46.0698C11.4649 46.2628 11.3433 46.4589 11.2264 46.6579C11.1095 46.8569 10.9975 47.0586 10.8905 47.2631C10.7834 47.4676 10.6814 47.6745 10.5845 47.8841C10.4875 48.0935 10.3957 48.3051 10.3091 48.519C10.2224 48.733 10.141 48.9489 10.0649 49.1667C9.98876 49.3846 9.91798 49.6043 9.85255 49.8255C9.78712 50.0468 9.72711 50.2696 9.67254 50.4939C9.61796 50.7181 9.56888 50.9436 9.52529 51.1703C9.48169 51.3969 9.44365 51.6245 9.41115 51.8529C9.37865 52.0814 9.35173 52.3106 9.3304 52.5404C9.30906 52.7702 9.29333 53.0004 9.28321 53.231C9.27309 53.4616 9.26859 53.6922 9.26971 53.9231C9.27153 54.1493 9.2789 54.3753 9.2918 54.6012C9.30471 54.8271 9.32314 55.0525 9.3471 55.2775C9.37106 55.5025 9.40052 55.7268 9.43547 55.9503C9.47041 56.1739 9.51082 56.3965 9.55668 56.618C9.60255 56.8396 9.65381 57.0599 9.71048 57.2789C9.76715 57.498 9.82915 57.7155 9.89649 57.9315C9.96381 58.1474 10.0364 58.3617 10.1142 58.5742C10.1921 58.7867 10.2751 58.9971 10.3632 59.2054C10.4514 59.4138 10.5446 59.6199 10.6428 59.8237C10.7411 60.0276 10.8442 60.2288 10.9524 60.4275C11.0605 60.6262 11.1734 60.8222 11.2911 61.0154C11.4089 61.2087 11.5313 61.3989 11.6583 61.5861C11.7854 61.7733 11.917 61.9573 12.053 62.138C12.1891 62.3188 12.3295 62.4961 12.4743 62.67C12.6191 62.8439 12.768 63.0142 12.9211 63.1807C13.0743 63.3472 13.2314 63.5099 13.3924 63.6688C25.7475 75.7009 58.6843 68.7378 66.4072 88.3843C67.4742 91.0987 68.0125 93.7878 68.0673 96.7029C68.1787 102.632 66.3702 108.059 62.2208 112.354C55.6315 119.175 44.8587 121.269 35.7307 121.394C25.8998 121.529 15.753 119.101 8.5213 112.066C8.20494 111.761 7.89627 111.449 7.59528 111.129C7.29431 110.81 7.00138 110.483 6.71651 110.149C6.43164 109.815 6.15518 109.474 5.88712 109.126C5.61905 108.779 5.35972 108.425 5.10911 108.064C4.85851 107.704 4.61694 107.337 4.3844 106.965C4.15185 106.593 3.92862 106.215 3.71471 105.831C3.5008 105.448 3.29646 105.06 3.10171 104.666C2.90694 104.273 2.72199 103.875 2.54685 103.472C1.86252 101.885 0.90572 96.7577 0.0662977 95.949C0.0435073 95.9271 0.0220993 95.9037 0 95.8811V90.7538C2.08962 90.7648 4.21707 90.695 6.30103 90.8249Z" fill="#212121"/>
<path d="M426.027 33.7896C427.22 33.759 432.31 33.493 433.036 34.0889C432.392 37.1988 430.172 41.9606 428.949 45.141L418.796 71.1888L402.485 113.547C399.463 121.318 396.806 129.135 393.105 136.644C391.308 140.29 389.08 144.494 385.614 146.778C382.343 148.935 378.872 148.419 376.067 150H366.485C367.216 148.987 367.008 146.36 366.81 145.147C366.76 144.838 366.633 144.573 366.461 144.315C372.639 144.259 379.412 144.005 384.053 139.306C385.271 138.072 386.212 136.602 387.021 135.076C388.182 132.889 393.233 120.811 393.203 119.059C393.199 118.881 393.149 118.722 393.099 118.553C392.214 115.56 390.769 112.829 389.552 109.967L382.954 94.3065L366.984 56.2503C364.231 49.6722 361.694 42.9827 358.813 36.4579C358.378 35.4736 358.027 34.4802 357.147 33.8049C359.633 33.7726 362.425 33.5078 364.875 33.8327C365.95 34.8951 367.849 40.1088 368.566 41.8135C369.852 44.8798 370.921 48.0242 372.178 51.1005L389.36 93.4273C390.484 96.203 396.385 108.836 396.504 110.907C396.509 111.009 396.504 111.018 396.489 111.105C397.192 110.573 397.549 109.994 397.874 109.192C398.874 106.714 399.606 104.117 400.571 101.619C406.519 86.2575 412.134 70.775 417.939 55.3624L424.026 39.5749C424.634 37.9624 425.754 35.8068 425.993 34.1262C426.009 34.0145 426.021 33.9023 426.027 33.7896Z" fill="#212121"/>
<path d="M658.837 33.8078C658.855 33.8379 658.874 33.8674 658.893 33.8976C659.745 35.3278 659.32 48.4215 659.414 50.957C659.735 50.8952 660.056 50.4895 660.238 50.2202C661.012 49.072 661.556 47.3165 662.587 45.8171C667.344 38.8892 674.244 34.4314 682.405 32.6316C690.801 30.7794 701.093 31.5949 708.447 36.3058C714.18 39.976 717.904 45.8993 719.344 52.4997C719.764 54.4235 720.157 56.5805 720.228 58.547C720.293 60.3084 720.129 62.0691 720.291 63.8308C720.326 64.2203 720.326 64.6369 720.629 64.9209L720.762 64.9707C720.907 65.318 720.972 65.6163 720.985 65.9925C721.161 70.9127 721.197 117.993 720.853 118.87C720.807 118.988 720.749 119.095 720.684 119.203C719.145 119.421 717.317 119.254 715.75 119.255C715.403 119.248 714.993 119.264 714.651 119.196C714.321 119.129 714.159 118.831 714.102 118.526C713.929 117.591 714.185 113.788 714.187 112.584L714.118 78.7597C714.104 72.3778 714.382 65.802 713.95 59.4407C713.851 57.9855 713.74 55.7895 712.955 54.5485C713.287 53.8146 712.567 51.8971 712.275 51.1218C710.33 45.9615 706.649 41.7623 701.588 39.5045C694.692 36.428 685.368 36.7818 678.397 39.4761C671.321 42.211 665.666 48.2607 662.631 55.142C661.074 58.6709 660.157 62.7877 659.756 66.622C658.965 74.1773 659.305 82.1024 659.39 89.6908C659.453 95.1628 659.286 100.634 659.333 106.105C659.359 109.303 659.598 112.52 659.461 115.716C659.416 116.754 659.461 118.396 658.82 119.231C656.797 119.247 654.77 119.291 652.748 119.181C653.251 118.256 653.084 116.233 653.093 115.154C653.129 111.07 652.93 106.986 652.924 102.901L652.865 57.4096C652.863 54.2553 653.337 35.8274 652.822 34.2079C652.776 34.0664 652.689 33.9366 652.6 33.8195C654.682 33.7759 656.754 33.754 658.837 33.8078Z" fill="#212121"/>
</g>
<defs>
<clipPath id="clip0_61_33">
<rect width="722" height="150" fill="white"/>
</clipPath>
</defs>
</svg>
