<svg width="404" height="150" viewBox="0 0 404 150" fill="none" xmlns="http://www.w3.org/2000/svg">
<path d="M128.555 2.448C128.621 2.44074 128.686 2.43391 128.75 2.42753C135.748 1.75001 144.331 4.65499 149.642 9.0585C156.843 15.0293 161.089 24.8839 161.93 34.0753C162.953 45.2471 160.673 57.2774 153.308 66.07C148.129 72.2529 139.654 75.6322 131.726 76.3508C131.598 76.3692 131.469 76.3851 131.34 76.3981C124.371 77.1083 115.702 74.1538 110.411 69.8246C102.832 63.6233 98.8747 53.7835 97.9498 44.23C96.8576 32.9448 99.4611 21.2521 106.789 12.3852C112.442 5.54547 120.084 3.26196 128.555 2.448ZM131.031 73.8077C136.924 73.2409 141.707 71.348 145.556 66.7037C153.291 57.372 154.082 44.2447 152.957 32.6765C152.15 24.3887 148.852 14.7773 142.227 9.36231C138.479 6.2979 133.461 4.33105 128.576 4.76311C128.492 4.77058 128.416 4.78691 128.334 4.80543C122.748 5.38939 117.74 7.7426 114.17 12.1465C107.389 20.509 105.323 32.7988 106.451 43.244C107.474 52.6998 110.34 63.4698 118.078 69.6936C121.388 72.357 126.477 74.3745 130.788 73.8579C130.921 73.842 130.884 73.8458 131.031 73.8077Z" fill="#212121"/>
<path d="M367.19 2.46371C367.325 2.45216 367.461 2.44372 367.6 2.43839C375.752 2.13799 383.913 4.44701 389.95 10.1148C397.542 17.2401 400.892 27.8875 401.204 38.0864C401.507 48.0628 398.742 59.5493 391.724 66.9738C386.363 72.6455 378.107 76.0782 370.304 76.3078C370.113 76.39 369.928 76.405 369.724 76.4275C363.008 77.1645 354.902 74.0569 349.772 69.8907C342.073 63.64 338.209 54.4291 337.216 44.7504C336.067 33.5388 338.405 21.5038 345.66 12.6162C351.183 5.84833 358.79 3.31543 367.19 2.46371ZM370.809 73.7243C376.514 73.2481 381.148 70.8547 384.845 66.4897C391.814 58.2556 393.3 45.5618 392.399 35.1821C391.6 25.9309 388.587 15.2963 381.174 9.10402C377.345 5.90513 372.096 4.31989 367.132 4.77442C366.956 4.7904 366.783 4.8086 366.61 4.82896C359.592 6.35741 355.786 8.11304 351.72 14.4334C344.95 24.9529 344.147 38.5635 346.756 50.5202C348.41 58.1062 352.02 66.4012 358.775 70.7523C362.356 73.0245 366.581 74.0679 370.809 73.7243Z" fill="#212121"/>
<path d="M211.714 109.691C211.999 109.664 212.285 109.641 212.571 109.623C215.416 109.452 218.341 109.65 221.194 109.641C226.619 109.623 233.264 108.9 238.49 110.138C240.363 110.582 242.192 111.588 243.624 112.865C245.554 114.584 246.77 116.922 246.902 119.517C247.038 122.217 245.946 124.821 244.141 126.803C241.272 129.951 237.97 130.553 233.923 130.733C234.102 130.846 234.273 130.977 234.434 131.116C236.409 132.814 240.782 139.136 242.715 141.621C244.072 143.365 245.629 144.983 246.934 146.758C247.116 147.005 247.179 147.234 247.199 147.535C245.197 147.723 242.463 148.109 240.608 147.144C240.647 147.084 240.674 147.045 240.709 146.978C240.866 146.679 240.88 146.413 240.78 146.093C239.989 143.548 231.03 131.864 228.895 130.681C224.757 130.643 220.619 130.639 216.482 130.669C217.134 132.057 217.099 144.682 216.574 146.147C216.649 146.184 216.72 146.217 216.79 146.26C217.251 146.538 217.935 146.989 218.081 147.525C215.711 147.719 213.379 147.673 211.009 147.518C211.44 147.175 211.89 146.822 212.162 146.333C212.748 145.282 212.605 117.121 212.421 113.935C212.335 112.443 212.145 111.125 211.714 109.691ZM216.542 127.34L228.19 127.367C231.019 127.371 233.881 127.46 236.696 127.141C239.104 126.592 241.079 125.757 242.452 123.585C243.403 122.091 243.707 120.274 243.296 118.552C242.86 116.684 241.64 115.199 240.014 114.215C238.921 113.547 237.7 113.115 236.429 112.946C233.68 112.563 230.731 112.879 227.954 112.918C224.156 112.973 220.354 112.913 216.554 112.944C217.133 114.465 217.207 125.759 216.575 127.268C216.564 127.292 216.553 127.316 216.542 127.34Z" fill="#212121"/>
<path d="M5.98631 3.01079C8.71221 2.80888 11.5777 3.11175 14.3209 3.12225L33.0735 3.11839C38.8418 3.13815 44.6097 3.11348 50.3777 3.04443C56.3485 2.9563 62.4379 2.74767 68.3975 3.16521C68.5583 5.06325 69.7913 16.5527 68.8731 17.6767C67.7785 16.9049 67.8412 14.1645 67.4196 12.8758C66.9105 11.3196 65.925 9.74271 64.7431 8.61081C60.4148 4.46513 48.2951 5.60109 42.4625 5.69998C41.812 6.64388 41.2355 7.4591 41.0378 8.6128C40.321 12.7939 40.7916 17.8132 40.7951 22.1038L40.796 48.3902L40.8153 74.8678C38.2686 75.0325 35.7191 75.1522 33.1682 75.2264L33.152 31.4673L33.1474 17.7445C33.1462 15.1475 33.2963 12.4548 33.0158 9.87474C32.9067 8.8689 32.8273 7.18457 31.9576 6.52232C29.8989 4.95413 17.8316 5.53994 14.8022 5.97522C9.73119 6.70385 6.79653 10.4701 5.43286 15.2188C5.22846 15.9306 5.23663 17.3057 4.82694 17.8498C4.12165 14.0608 4.72257 10.0887 4.96156 6.29389C5.00672 5.5766 4.8762 4.34331 5.11159 3.7087C5.27489 3.26847 5.58912 3.21505 5.98631 3.01079Z" fill="#212121"/>
<path d="M208.507 1.67539C209.022 1.62204 209.414 1.61886 209.914 1.75846C210.14 2.04672 210.181 2.13605 210.245 2.50066C210.711 5.14548 210.36 8.24079 210.326 10.9383L210.293 23.9345L210.292 54.1884C210.303 60.3032 210.423 66.4367 210.275 72.5495C210.257 73.3041 210.302 74.1877 209.851 74.8289C207.21 75.2351 204.455 75.2262 201.786 75.3254C201.911 75.0412 202.011 74.7493 202.062 74.4424C202.308 72.9698 202.556 70.5496 201.636 69.2838C201.789 69.0444 201.909 68.7932 201.949 68.5085C202.25 66.3421 202.045 63.8544 202.058 61.6587L202.123 47.1707L202.152 23.4259C202.148 18.9712 202.306 14.4269 202.023 9.98209C201.954 8.89906 201.867 7.04451 201.176 6.17988L201.107 6.09455C200.934 5.87855 200.764 5.66913 200.564 5.47698C198.754 3.73788 195.801 4.10079 193.498 4.1209C194.374 3.84198 195.148 3.2869 196.04 3.05633C199.678 2.11474 204.656 2.13783 208.507 1.67539Z" fill="#212121"/>
<path d="M295.682 1.87233C296.954 1.76838 298.487 1.54053 299.704 2.01159C299.808 2.21418 299.86 2.39686 299.883 2.62145C300.155 5.3743 299.889 8.3046 299.869 11.0775L299.84 27.6546L299.878 58.5434C299.857 63.217 299.987 67.9625 299.774 72.6284C299.742 73.3622 299.673 74.0626 299.188 74.6516C297.113 75.4838 293.757 75.1974 291.492 75.2577C291.558 75.0895 291.61 74.9187 291.648 74.7413C291.852 73.7133 291.916 72.5577 291.321 71.649C291.619 71.1532 291.679 70.5387 291.72 69.9728C291.956 66.519 291.769 62.9542 291.763 59.4904L291.743 39.736L291.754 21.4789C291.757 17.5977 291.925 13.6017 291.526 9.73748C291.394 8.4381 290.972 6.62705 290.066 5.63584C288.415 3.8301 284.733 4.02346 282.506 3.89498C284.445 3.75092 286.428 3.2616 288.349 2.93798C290.785 2.52803 293.238 2.22274 295.682 1.87233Z" fill="#212121"/>
<path d="M244.426 3.25225C246.238 3.13176 248.02 3.08551 249.836 3.1231C249.811 3.22507 249.787 3.3237 249.753 3.4229C249.592 3.89309 249.279 4.23884 248.946 4.59472C244.761 9.06933 240.251 13.3041 235.938 17.6629C233.588 20.0386 222.293 32.1245 220.635 32.9726C220.668 32.9899 220.701 33.0078 220.734 33.0248C221.761 33.5588 222.454 34.4366 223.186 35.3106C225.795 38.4251 228.055 41.8517 230.583 45.0398C236.303 52.1135 241.96 59.2382 247.554 66.4128C249.34 68.7067 252.855 72.5493 253.862 75.0687L253.683 75.3571C252.932 75.7347 252.139 75.7812 251.316 75.8709C248.944 76.209 246.675 76.3494 244.279 76.2695C244.276 76.2505 244.275 76.2309 244.269 76.2124C244.078 75.5853 238.214 68.5529 237.222 67.2744L222.27 47.7153C220.29 45.103 218.418 42.4042 216.381 39.8368C215.507 38.7349 214.528 37.3541 213.346 36.5882L213.43 36.5452C215.455 35.5318 218.105 31.7709 219.68 29.9899L232.909 15.285C235.755 12.067 238.445 8.63921 241.481 5.59969C242.35 4.73006 243.29 3.76354 244.426 3.25225Z" fill="#212121"/>
<path d="M340.537 139.426C341.94 137.635 342.869 135.022 343.888 132.976L349.558 121.82C350.989 119.002 353.491 114.905 354.576 112.156C355.009 111.059 354.343 110.57 354.62 109.773C356.394 109.104 360.074 109.477 361.967 109.763C361.372 113.057 361.563 116.358 361.545 119.697C361.47 125.225 361.436 130.754 361.442 136.282C361.444 139.539 361.667 142.962 361.358 146.199C361.384 146.209 361.41 146.217 361.433 146.228C361.987 146.478 362.662 146.926 362.879 147.504C360.336 147.783 357.673 147.631 355.116 147.606C355.852 147.349 356.923 146.99 357.306 146.259C357.609 145.839 357.696 145.39 357.754 144.886C358.233 140.748 357.846 136.338 357.857 132.172C357.869 128.067 358.256 123.67 357.834 119.598C357.797 119.257 357.702 119.023 357.488 118.757C357.676 117.979 357.863 117.138 357.71 116.341C357.644 116.001 357.664 115.836 357.373 115.641C356.207 116.709 355.304 119.333 354.548 120.802C352.747 124.304 342.182 146.45 340.702 147.185C340.266 147.059 340.041 146.804 339.787 146.44C338.188 144.145 337.005 141.11 335.75 138.599L328.1 123.432C326.876 120.974 325.748 118.138 324.057 115.973C323.745 115.574 323.356 115.288 322.926 115.025L322.857 114.984C323.301 115.7 323.379 116.431 323.448 117.254C323.8 121.287 323.543 125.484 323.515 129.538C323.486 133.584 323.636 137.638 323.529 141.682C323.515 142.243 323.145 145.938 323.275 146.147C323.52 146.546 324.476 146.752 324.842 147.301L324.735 147.438C323.249 147.841 320.138 147.952 318.69 147.44L318.629 147.176C318.984 146.863 319.264 146.566 319.535 146.176C319.821 142.051 320.332 113.887 319.492 111.425C319.483 111.405 319.477 111.386 319.472 111.366C319.492 110.98 318.776 110.086 318.563 109.691C321.169 109.439 324.152 109.324 326.732 109.822C327.038 110.502 326.464 111.373 326.874 112.332C327.736 114.362 328.885 116.332 329.875 118.306C331.615 121.777 333.297 125.274 335.069 128.729C336.31 131.149 340.133 137.247 340.537 139.426Z" fill="#212121"/>
<path d="M279.34 109.691C280.62 109.563 285.117 109.315 286.13 109.843C286.289 109.926 286.433 112.338 286.636 112.944C287.72 116.194 289.642 119.466 291.105 122.575C294.274 129.31 297.451 136.043 300.368 142.887C300.919 144.181 301.771 145.362 302.23 146.687C302.942 146.874 303.589 147.041 304.226 147.432C301.58 147.92 298.553 147.706 295.881 147.55C295.898 147.539 295.919 147.529 295.936 147.517C296.386 147.191 296.874 146.553 296.966 146.004C296.969 145.861 296.96 145.723 296.943 145.581C296.715 143.881 293.861 137.749 292.554 136.77C290.375 136.584 288.17 136.634 285.986 136.627L271.767 136.639C271.667 138.998 267.364 144.774 267.76 146.321C267.846 146.658 268.298 146.89 268.387 147.345C266.306 148.173 262.988 147.627 260.775 147.403C261.447 147.117 262.211 146.867 262.767 146.385C263.538 145.761 264.055 144.534 264.498 143.656C267.613 137.494 270.273 131.023 273.15 124.742C274.851 121.027 276.956 117.318 278.46 113.541C278.774 112.75 279.111 111.801 279.224 110.961C279.28 110.539 279.185 110.178 279.316 109.761C279.324 109.737 279.332 109.714 279.34 109.691ZM273.01 133.837C276.125 133.887 279.331 134.11 282.435 133.909C285.401 133.91 288.374 133.95 291.336 133.811C291.44 133.42 291.405 133.106 291.278 132.722C290.225 129.491 288.407 126.347 286.962 123.267C285.805 120.801 284.85 118.16 283.475 115.809C283.206 115.348 282.833 114.587 282.282 114.45C282.177 114.424 282.096 114.421 281.987 114.421C281.609 116.037 273.789 133.142 273.01 133.837Z" fill="#212121"/>
<path d="M171.792 109.691C173.98 109.609 176.724 109.273 178.855 109.83C179.299 110.359 179.025 111.652 179.365 112.425C180.67 115.444 182.018 118.444 183.408 121.424C186.917 128.96 190.16 136.677 193.838 144.124C194.469 145.4 196.159 146.469 196.563 147.548C195.009 147.642 190.705 147.983 189.484 147.361C189.433 146.661 189.755 146.165 189.61 145.414C189.24 143.497 186.948 137.803 185.374 136.762C183.034 136.537 180.63 136.635 178.279 136.637C173.694 136.612 169.108 136.633 164.524 136.7C164.719 139.332 160.913 143.315 160.62 145.763C160.546 146.382 161.181 146.692 161.189 147.326C160.122 147.972 156.368 147.715 155.088 147.539C155.187 146.634 156.713 145.072 157.167 144.111C159.915 138.28 162.483 132.356 165.229 126.52C167.179 122.377 169.385 118.282 171.165 114.07C171.505 113.265 171.843 112.473 171.916 111.593C172.115 110.934 171.573 110.407 171.792 109.691ZM165.588 133.802C168.74 133.827 171.984 133.728 175.123 133.978C178.063 134.034 181.415 134.376 184.303 133.836C184.346 133.441 184.248 133.158 184.103 132.8C183.101 130.313 181.837 127.903 180.747 125.448C179.739 123.18 176.966 116.072 175.749 114.472C175.658 114.352 175.523 114.277 175.387 114.218L174.792 114.222C174.768 115.839 167.103 132.375 165.735 133.682C165.68 133.735 165.654 133.752 165.588 133.802Z" fill="#212121"/>
<path d="M80.0943 141.049C80.0675 137.599 80.4519 111.663 79.9982 110.714C79.8294 110.36 79.4803 110.377 79.3412 109.882C79.4843 109.807 79.6381 109.734 79.796 109.695C80.7725 109.457 83.7182 109.294 84.5432 109.798C84.7582 110.567 84.1387 111.459 83.9978 112.25C83.5659 114.676 84.0293 121.356 84.0359 124.28L84.0007 138.265C83.995 140.624 83.8221 143.139 84.0974 145.483C84.175 146.145 84.7692 146.844 85.1461 147.38L82.8187 147.599L78.4959 147.607L78.5023 145.074L62.4491 125.979C59.0387 121.889 55.9002 117.393 51.881 113.872C52.0611 124.742 51.7907 135.642 51.8374 146.519L53.3767 147.559C51.0485 147.595 48.7304 147.637 46.4048 147.491C46.8166 147.148 47.2465 146.801 47.6176 146.414C47.9867 146.029 48.0623 145.583 48.1065 145.066C48.4473 141.086 48.1189 136.817 48.1278 132.812C48.1443 125.614 48.3293 118.426 48.1198 111.229L46.4896 109.651C49.627 109.63 52.7635 109.499 55.8971 109.707L55.0888 111.67C59.0987 116.707 63.3592 121.602 67.4783 126.555C71.5526 131.455 75.5413 136.581 80.0943 141.049Z" fill="#212121"/>
<path d="M133.815 109.456C135.83 109.365 137.933 109.698 139.934 109.911C134.599 113.335 126.482 119.476 122.091 123.901C125.118 129.226 129.535 133.968 133.393 138.725C135.3 141.077 137.068 143.623 139.161 145.81C139.798 146.476 140.52 147.005 141.277 147.527C139.39 147.569 137.435 147.705 135.553 147.597C135.239 147.579 134.329 147.539 134.143 147.276C133.939 146.989 133.834 146.127 133.677 145.747C133.337 144.923 132.857 144.138 132.354 143.405C128.293 137.494 123.409 131.732 118.628 126.396C116.344 127.674 114.355 129.352 112.354 131.022L110.082 132.859L110.084 145.303C110.643 146.105 111.292 146.777 111.976 147.471C109.789 147.715 107.514 147.606 105.318 147.545C105.507 147.149 105.692 146.746 105.835 146.331C106.134 145.462 106.199 144.444 106.236 143.533C106.475 137.721 106.167 131.769 106.16 125.944C106.155 121.638 106.517 117.161 106.198 112.881C106.11 111.706 105.923 110.855 105.402 109.792C106.749 109.685 108.427 109.372 109.753 109.598C110.317 109.694 110.548 109.836 110.869 110.296C110.786 110.973 110.488 111.249 110.093 111.78C110.025 117.09 109.538 122.584 111.038 127.735C115.724 124.23 120.246 120.533 124.869 116.945C126.966 115.317 129.267 113.854 131.299 112.161C132.039 111.546 132.174 110.833 132.25 109.912C132.566 109.507 133.305 109.534 133.815 109.456Z" fill="#212121"/>
<path d="M18.7098 109.665C20.3558 109.649 21.9912 109.73 23.6343 109.814C22.9289 111.225 22.5157 112.528 22.403 114.107C22.2085 116.835 22.8375 119.658 22.8634 122.406C22.9303 130.027 22.8436 137.648 22.6034 145.265C22.9337 145.83 23.6802 146.705 23.6247 147.359L23.2284 147.539C21.4156 147.603 19.2849 147.761 17.5072 147.376L17.4985 147.171C17.8332 146.901 18.2306 146.615 18.32 146.173C19.0101 142.76 18.5205 137.039 18.5121 133.399C18.498 127.265 18.7043 121.106 18.5336 114.976C18.5044 113.926 17.8511 110.551 18.1085 109.858L18.7098 109.665Z" fill="#212121"/>
<path d="M382.986 109.691C384.481 109.649 386.498 109.378 387.903 109.899L387.926 110.16C387.693 110.386 387.404 110.658 387.286 110.965C386.934 111.861 386.931 141.602 387.104 144.651C387.15 145.483 387.678 146.469 387.996 147.239C387.623 147.643 387.355 147.56 386.818 147.606C385.324 147.616 383.748 147.724 382.27 147.468L382.109 147.234C382.415 146.867 382.735 146.515 383.061 146.166C383.381 138.36 383.33 130.51 383.315 122.697C383.309 119.011 383.618 114.996 383.104 111.351C383.021 110.77 382.848 110.378 382.458 109.936C382.444 109.92 382.429 109.904 382.415 109.888L382.986 109.691Z" fill="#212121"/>
</svg>
