<svg width="483" height="150" viewBox="0 0 483 150" fill="none" xmlns="http://www.w3.org/2000/svg">
<g clip-path="url(#clip0_94_10)">
<path d="M114.166 51.1976L131.819 51.177C141.446 51.1387 152.031 50.0062 159.443 57.5369C161.741 59.8715 165.517 65.8194 165.09 69.07C165.081 69.1491 165.057 69.2258 165.039 69.3037C165.745 70.6776 165.654 74.6941 165.162 76.2441C165.143 76.3001 165.125 76.3555 165.105 76.4113C165.173 80.4758 162.34 85.612 159.595 88.459C156.975 91.1747 154.471 92.1247 151.225 93.6869C155.318 99.4425 159.337 105.25 163.282 111.109C164.988 113.611 167.03 116.134 168.52 118.759C168.644 118.978 168.695 119.112 168.665 119.37C166.311 119.569 153.954 119.709 152.236 119.147C150.845 117.741 149.756 115.814 148.605 114.201L139.685 101.458C138.185 99.3194 136.708 96.8783 134.926 94.9786C132.504 94.9092 130.028 94.8517 127.607 94.9722C127.615 103.057 127.883 111.239 127.599 119.312C123.11 119.361 118.624 119.366 114.136 119.327C114.357 113.072 114.141 106.74 114.131 100.477L114.149 68.2063C114.138 62.5662 113.9 56.8278 114.166 51.1976ZM134.234 62.7062C132.052 62.6314 129.852 62.7286 127.668 62.7682C127.681 69.6398 127.582 76.5253 127.688 83.3953C130.266 83.46 132.995 83.6327 135.565 83.4563C138.869 83.5075 142.387 83.503 145.6 82.6461C148.248 81.9402 150.034 80.6512 151.418 78.2953C151.707 77.6862 152.01 77.0669 152.176 76.4108C152.88 73.6441 152.806 70.1336 151.303 67.6298C150.885 66.8479 150.278 66.1032 149.624 65.5067C145.87 62.0821 138.985 62.5016 134.234 62.7062Z" fill="#212121"/>
<path d="M394.212 51.2375C396.043 50.9609 398.09 51.1372 399.957 51.1393C402.606 51.1425 405.267 51.0728 407.915 51.1365C408.269 51.1449 409.111 51.1312 409.338 51.4253C410.238 52.5923 412.248 57.7575 413.069 59.5571L426.401 89.3611L435.628 109.69C436.938 112.629 438.365 115.573 439.509 118.581C439.616 118.861 439.591 119.039 439.542 119.328C437.756 119.719 427.445 119.515 425.151 119.353C425.204 117.922 419.713 106.152 418.568 104.666C417.23 104.037 410.246 104.392 408.295 104.397C400.953 104.393 393.579 104.249 386.238 104.408C385.723 104.419 384.431 104.422 383.99 104.711C383.065 105.316 378.417 117.548 376.684 119.294C376.661 119.317 376.636 119.338 376.613 119.36C375.058 119.579 373.345 119.452 371.77 119.452C368.841 119.475 365.912 119.452 362.983 119.383C363.608 118.837 363.938 117.936 364.292 117.198C367.979 109.472 371.385 101.585 374.878 93.769L383.017 75.9799C384.915 71.7253 386.838 67.4826 388.789 63.2517C390.647 59.2977 392.697 55.336 394.212 51.2375ZM389.981 90.393C393.708 90.5529 397.461 90.4733 401.192 90.4746C405.104 90.4854 409.081 90.6461 412.986 90.4392C413.024 90.2111 413.041 90.0689 412.965 89.8441C410.755 83.2943 407.516 76.6854 404.754 70.3152C404.142 68.9037 403.25 66.0598 402.426 64.9235C402.4 64.887 402.368 64.8548 402.339 64.8205L402.278 65.0468C402.235 64.951 402.21 64.8136 402.112 64.7687C401.984 64.8496 401.83 64.9005 401.726 65.0113C401.118 65.6552 400.282 68.2048 399.877 69.143C398.478 72.3784 391.75 88.9225 389.981 90.393Z" fill="#212121"/>
<path d="M43.1929 51.2641L60.157 51.2265C66.1684 51.1875 72.4795 50.7779 78.3785 52.1331C81.2937 52.8027 84.0574 54.0207 86.4229 55.8667C91.1157 59.5321 93.0303 64.3669 93.7257 70.0859C93.9735 72.11 94.1337 74.2619 93.7455 76.2766C93.1525 80.9176 91.6609 84.9309 88.3621 88.3765C80.0434 97.0631 67.0006 94.6763 56.1964 94.9743C56.1747 103.078 56.218 111.181 56.3262 119.284C52.0463 119.629 47.5338 119.338 43.2309 119.317L43.1929 51.2641ZM56.2582 62.6745C56.1919 69.5834 56.2185 76.493 56.3381 83.4012C62.7241 83.5002 69.429 84.0522 75.6183 82.1827C77.9467 81.1898 79.6569 79.8311 80.6232 77.4253C81.6874 74.7761 81.7881 71.0412 80.6402 68.4022C79.6762 66.186 77.8831 64.7573 75.6551 63.9204C70.9376 62.1479 65.3177 62.5339 60.3648 62.6276L56.2582 62.6745Z" fill="#212121"/>
<path d="M188.699 50.9479C191.788 50.7946 194.918 50.8862 198.012 50.887L214.543 50.9086L228.515 50.9177C231.196 50.9177 233.911 50.8217 236.586 50.9885C237.076 51.8114 236.938 62.0878 236.677 63.2256C235.677 63.8525 213.865 63.3918 210.876 63.5133C207.797 63.2725 204.38 63.3722 201.291 63.5557C202.589 66.1017 200.858 77.5441 201.942 78.8694C202.181 78.8918 202.406 78.9248 202.645 78.8921C209.672 79.1324 216.772 78.9463 223.805 78.9395C226.723 78.9365 229.717 78.8014 232.625 79.0179C232.691 79.1494 232.77 79.2831 232.81 79.425C233.054 80.2883 232.914 91.6461 232.639 92.1309C229.602 92.4649 226.283 92.2091 223.222 92.2072C215.959 92.2025 208.673 92.0689 201.413 92.2449C201.456 92.3403 201.532 92.4936 201.56 92.6032C201.851 93.673 201.747 106.079 201.396 106.731C210.559 107.011 219.795 106.781 228.964 106.784C232.58 106.786 236.303 106.595 239.908 106.858C239.995 106.995 240.069 107.111 240.107 107.273C240.344 108.277 240.299 117.639 240.112 118.729C240.074 118.95 239.992 119.089 239.883 119.28C237.694 119.493 235.37 119.35 233.168 119.348H220.649L200.461 119.37C196.522 119.373 192.562 119.46 188.626 119.32C188.654 119.259 188.689 119.201 188.71 119.137C189.022 118.224 188.999 51.7342 188.699 50.9479Z" fill="#212121"/>
<path d="M301.292 51.2156C303.641 51.0166 306.119 51.1567 308.481 51.1501C311.15 51.1429 313.932 50.9813 316.586 51.2323C316.745 53.2292 312.523 65.0156 311.228 67.4498L311.35 67.9128C310.678 70.5232 309.629 73.1123 308.742 75.66C307.666 78.7465 306.68 81.8712 305.659 84.9769C303.35 92.0633 300.998 99.1358 298.604 106.194C297.283 110.179 296.049 114.2 294.647 118.159C294.488 118.606 294.366 118.97 294.04 119.332C288.441 119.627 282.705 119.421 277.094 119.37C277.225 118.677 276.793 117.639 276.585 116.962C274.302 109.56 271.648 102.257 269.244 94.8924L259.903 65.547L256.573 55.6155C256.13 54.2546 255.412 52.6521 255.306 51.2376C257.387 51.0219 259.621 51.1724 261.719 51.1704C264.523 51.1678 267.419 51.0217 270.209 51.2501C270.528 51.5211 270.691 51.8924 270.837 52.2782C271.906 55.1273 272.606 58.1699 273.569 61.0684L283.021 90.3156C283.758 92.6193 284.304 95.0783 285.208 97.314C285.4 97.7874 285.57 98.1694 286.019 98.4298L286.204 98.1407L285.973 97.9401L285.983 97.7793L286.359 97.7369C286.899 96.126 287.296 94.461 287.826 92.8437C289.617 87.3937 301.424 52.6135 301.292 51.2156Z" fill="#212121"/>
<path d="M334.19 51.2035C334.515 51.1756 334.843 51.1576 335.168 51.1495C336.598 51.1205 346.404 50.9375 347.065 51.2411C347.17 51.2899 347.235 51.4021 347.319 51.4827C347.947 53.0239 347.616 118.627 347.555 118.792C347.506 118.926 347.398 119.05 347.314 119.163C346.516 119.662 335.951 119.365 334.051 119.353C334.091 119.279 334.162 119.155 334.19 119.068C334.537 117.949 334.287 109.536 334.296 107.558L334.354 62.7629C334.362 60.9502 334.714 52.3614 334.19 51.2035Z" fill="#212121"/>
<path d="M129.455 0.960801C130.38 0.142649 140.323 0.441988 142.166 0.55453C144.58 0.701724 147.578 1.04083 149.253 2.94661C150.688 4.58044 151.164 6.67367 151.017 8.80932C150.88 10.8063 150.013 12.5224 148.481 13.8158C147.906 14.3009 147.208 14.6484 146.549 15.0021C148.123 15.6501 149.2 16.4228 149.885 18.0222C151.326 21.388 149.932 25.1615 151.806 28.5138C150.373 28.5278 148.919 28.5928 147.489 28.487C146.821 25.3608 147.251 22.3346 146.175 19.2476C145.525 18.0121 144.803 17.2823 143.445 16.8608C141.263 16.1834 135.589 16.5511 133.058 16.6398L133.07 28.4631C131.847 28.5055 130.623 28.5219 129.398 28.5123C129.424 19.329 129.173 10.1426 129.455 0.960801ZM133.073 13.3715C136.77 13.5715 142.493 14.206 145.767 12.179C146.861 11.0768 147.55 9.75205 147.531 8.17235C147.518 7.10271 147.153 6.13093 146.374 5.37664C143.744 2.8311 136.986 3.56872 133.506 3.65618C133.375 3.65981 133.243 3.66608 133.114 3.67499C132.667 5.89578 133.041 10.9075 133.073 13.3715Z" fill="#212121"/>
<path d="M327.593 28.4554C327.629 28.3855 327.669 28.3167 327.702 28.2454C328.123 27.3546 327.855 24.2127 327.844 23.1337L327.692 8.33827C327.68 6.15247 327.441 3.68926 327.787 1.53728C327.845 1.1754 327.898 0.835305 328.273 0.696856C329.188 0.359067 340.855 0.539429 342.238 0.710881C343.511 0.868636 344.755 1.17969 345.888 1.79322C347.504 2.65511 348.69 4.14636 349.166 5.91303C349.711 7.87029 349.544 10.1465 348.497 11.9132C347.565 13.4871 346.125 14.3313 344.41 14.8462C345.966 15.4211 347.259 16.1317 347.998 17.6878C349.034 19.8754 348.611 22.6266 348.979 24.9668C349.149 26.0477 349.909 27.4209 349.737 28.4609C348.401 28.4629 347.058 28.4922 345.723 28.4239C346.032 27.7513 345.984 26.9888 345.73 26.304C345.657 26.1058 345.475 26.0216 345.312 25.8931C345.444 25.5591 345.548 25.2279 345.576 24.8676C345.697 23.2568 345.386 20.3404 344.319 19.1145C344.313 18.5884 344.033 18.2178 343.652 17.8676C341.476 15.8705 334.149 16.3602 331.192 16.5409C331.678 17.3899 331.656 26.6139 331.369 27.8884C331.327 28.0754 331.24 28.2599 331.139 28.4214C329.945 28.5158 328.785 28.4983 327.593 28.4554ZM331.199 13.5109C334.129 13.6363 341.425 14.2107 343.701 12.5516L343.791 12.3789C344.564 12.0731 345.181 11.1947 345.505 10.4445C346.002 9.28629 345.946 7.89355 345.464 6.73728C344.937 5.50065 343.933 4.52953 342.679 4.0457C340.545 3.21319 334.208 3.58398 331.732 3.71286L331.461 3.9523C331.355 5.90626 331.922 12.2242 331.199 13.5109Z" fill="#212121"/>
<path d="M429.401 0.635361C433.36 0.512424 443.364 0.0592885 446.639 1.34163C448.41 2.0352 449.913 3.24213 450.663 5.02199C451.425 6.82645 451.431 9.40945 450.645 11.2063C449.765 13.217 447.898 14.2459 445.924 14.959C447.517 15.405 448.916 16.1859 449.76 17.6672C450.24 18.5119 450.569 19.8698 450.316 20.8185C450.971 21.9849 451.03 26.287 451.63 28.1497C451.559 28.2751 451.494 28.409 451.405 28.523L447.368 28.4279L447.431 28.251C447.612 27.74 447.345 24.1136 447.308 23.3637C447.223 21.5893 446.859 18.9505 445.44 17.7297C442.812 15.4703 436.223 16.5093 432.992 16.6811C433.013 16.7223 433.038 16.7616 433.055 16.805C433.372 17.6202 433.344 27.6043 432.942 28.4705C431.741 28.6099 430.488 28.5278 429.279 28.5146C429.363 28.3766 429.419 28.3043 429.472 28.1586C429.716 27.4967 429.692 3.6177 429.606 1.36704C429.596 1.10054 429.516 0.8715 429.401 0.635361ZM432.997 13.4246C435.394 13.5583 443.76 13.9987 445.381 12.6472C445.389 12.6405 445.396 12.6316 445.402 12.6238C446.382 12.1872 447.026 11.2301 447.378 10.236C447.802 9.03982 447.745 7.56721 447.186 6.42463C446.593 5.21176 445.538 4.41341 444.267 4.00203C441.537 3.1177 436.737 3.48157 433.836 3.71292C433.582 3.80681 433.34 3.82084 433.217 4.0743C432.501 5.53965 433.834 11.4664 432.997 13.4246Z" fill="#212121"/>
<path d="M404.653 0.577641C405.883 0.531436 407.088 0.507013 408.318 0.587541C408.376 0.639356 408.441 0.685398 408.493 0.742823C408.741 1.01527 419.146 26.2611 419.605 27.9146C419.657 28.0955 419.633 28.2474 419.617 28.4303C418.21 28.6258 416.698 28.5212 415.282 28.4509C415.287 27.0811 413.127 21.2559 412.175 20.3436C411.577 19.7704 409.126 20.0265 408.295 20.0413C405.647 20.026 403.001 20.0379 400.353 20.077C400.386 20.2125 400.416 20.3212 400.401 20.4623C400.239 21.9501 398.13 27.6326 397.092 28.5257C395.847 28.6037 394.58 28.544 393.331 28.5319C393.685 28.2161 393.886 27.9156 394.083 27.4862C396.195 22.8999 397.819 17.9676 399.651 13.2615C400.741 10.4606 402.084 7.77121 403.193 4.98523C403.739 3.60834 403.832 1.79332 404.653 0.577641ZM401.539 17.0082C403.186 17.0364 404.831 17.0484 406.478 17.044C407.95 17.0455 409.537 17.1537 410.993 16.9557C411.179 15.8471 407.765 6.49068 406.959 5.39629C406.815 5.20074 406.62 5.08226 406.381 5.04035C406.338 5.03309 406.295 5.0354 406.252 5.03292C405.601 6.83193 402.429 16.1903 401.539 17.0082Z" fill="#212121"/>
<path d="M285.835 0.742492C287.026 0.634571 288.193 0.653217 289.384 0.707837C289.511 0.809653 289.608 0.913943 289.701 1.04959C291.08 3.06427 292.342 7.39596 293.287 9.78837C295.601 15.6484 298.228 21.4588 300.185 27.4469C300.304 27.8102 300.363 28.0456 300.286 28.4214C298.991 28.5189 297.701 28.478 296.402 28.4478C296.404 28.4329 296.406 28.4181 296.407 28.4031C296.48 27.2235 294.068 21.2288 293.163 20.3115C292.59 19.7304 289.537 20.0121 288.701 20.0237C286.351 20.0158 284.002 20.0233 281.651 20.0463C281.691 20.1913 281.717 20.2474 281.699 20.4161C281.559 21.6595 279.032 27.7941 278.146 28.5669C276.849 28.6436 275.538 28.5753 274.24 28.5481C276.128 26.6237 279.289 16.6484 280.459 13.7291C282.2 9.38259 284.045 5.07021 285.835 0.742492ZM282.598 17.0131C284.412 17.0441 286.227 17.0555 288.041 17.0476C289.446 17.0471 290.941 17.1405 292.331 16.9519C292.663 15.8897 288.928 6.93688 288.16 5.48028C287.994 5.16823 287.839 4.94447 287.563 4.72401L287.081 4.70239C287.157 6.00751 283.71 15.8342 282.725 16.8856C282.684 16.9293 282.641 16.9705 282.598 17.0131Z" fill="#212121"/>
<path d="M43.3362 0.663088C44.5946 0.620183 45.8337 0.628434 47.0917 0.680084C49.4753 6.2423 51.6713 11.9111 53.8664 17.5507C55.291 21.2108 56.6243 25.0314 58.4324 28.5202C56.9374 28.5827 55.4448 28.5469 53.9492 28.52C53.0474 25.6925 52.0728 22.8835 51.1419 20.0651C49.934 19.9741 48.7022 20.0114 47.4906 20.0027L39.3711 20.0043C38.3047 22.8303 37.3412 25.857 36.0318 28.5699L32.3987 28.5624C32.7543 26.9227 33.5748 25.2256 34.1746 23.6486C35.802 19.4324 37.4657 15.2302 39.1658 11.0426C40.1941 8.43899 41.9906 2.7852 43.3362 0.663088ZM40.0705 17.0563C41.7315 17.0963 43.3929 17.1101 45.0541 17.0982C46.7787 17.0938 48.5199 17.1406 50.2421 17.0702C49.4451 15.3208 48.7389 13.5316 48.1263 11.7096C47.4221 9.68289 46.8505 7.32546 45.7329 5.49741C45.5381 5.17876 45.2596 4.95599 44.9573 4.74196C44.2125 6.2781 43.6978 7.96952 43.0741 9.5616C42.0917 12.069 41.0291 14.5378 40.0705 17.0563Z" fill="#212121"/>
<path d="M170.903 0.741962C172.172 0.529915 173.533 0.574964 174.81 0.707307C174.871 0.756647 174.972 0.832555 175.026 0.897571C175.234 1.14741 185.317 26.2496 185.71 27.9116C185.752 28.0865 185.73 28.2195 185.709 28.3946C184.316 28.5342 182.914 28.4702 181.52 28.4317C181.564 28.2849 181.604 28.1715 181.594 28.0149C181.515 26.6811 179.44 20.8235 178.485 20.0618C177.238 20.0111 175.973 20.0418 174.724 20.0357L166.528 20.0557C166.539 20.0997 166.557 20.1425 166.564 20.1878C166.698 21.0969 164.324 27.7126 163.706 28.4271C162.487 28.551 161.242 28.4685 160.019 28.4383C160.929 27.4713 162.149 23.167 162.722 21.7203C164.497 17.2458 166.171 12.7253 167.966 8.26143C168.872 6.0083 170.482 3.04675 170.903 0.741962ZM167.525 17.0613L172.577 17.0827C174.043 17.0908 175.87 17.2966 177.289 16.9598C177.597 15.7778 174.291 6.60632 173.35 5.15401C173.234 4.97744 173.239 4.99048 173.118 4.86028L172.582 4.86292C170.973 8.10978 169.925 14.3086 167.709 16.8547C167.671 16.8981 167.634 16.9426 167.596 16.9857C167.573 17.0116 167.548 17.036 167.525 17.0613Z" fill="#212121"/>
<path d="M0.413086 0.566796C1.6827 0.540063 2.94123 0.56201 4.21018 0.606565C5.47137 2.44435 6.53549 4.45244 7.75109 6.33033C10.2887 10.2506 12.94 14.1109 15.5283 17.9996C16.2667 19.1089 17.5901 21.6034 18.5497 22.3625L18.778 22.2369C18.9863 21.6269 18.8958 3.02142 18.9229 0.66069C20.0567 0.547654 21.2131 0.591382 22.3519 0.594023C22.3342 2.56102 22.3598 28.1547 22.347 28.1831C22.285 28.3193 22.1583 28.4155 22.064 28.5316C20.8694 28.5709 19.6728 28.5348 18.478 28.5143C16.4804 25.211 14.2243 22.0902 12.1191 18.8582C9.73925 15.2047 7.48596 11.4026 4.94922 7.86102C4.6646 7.46366 4.27428 6.95887 3.85075 6.71267L3.67713 7.01416L3.78467 7.06185C3.58215 9.81284 3.72454 12.6439 3.7214 15.4069L3.64674 28.495C2.522 28.5864 1.37776 28.5371 0.249716 28.5278C0.148458 22.6241 0.24113 16.7052 0.225933 10.7996C0.217839 7.65492 -0.0666121 4.26366 0.187112 1.14369C0.209081 0.87455 0.254509 0.775707 0.413086 0.566796Z" fill="#212121"/>
<path d="M260.911 0.620588C262.102 0.580984 263.299 0.603757 264.49 0.598641C264.596 0.808212 264.675 1.00986 264.7 1.24501C264.824 2.45508 264.705 3.81052 264.705 5.0328L264.73 12.432L264.771 22.4141C264.781 24.3135 264.88 26.2574 264.73 28.1501C264.277 28.4473 263.95 28.4019 263.428 28.4283C262.553 28.4452 261.669 28.4049 260.792 28.3915C260.888 28.2812 260.95 28.1777 260.995 28.0379C261.357 26.8802 261.429 16.7104 260.97 15.8252C259.01 15.5092 256.827 15.6745 254.835 15.6778C251.887 15.683 248.905 15.6117 245.963 15.7965C246.077 15.9752 246.14 16.1216 246.194 16.3295C246.505 17.5353 246.619 27.6422 246.181 28.4145C244.984 28.5387 243.75 28.4656 242.549 28.4496C242.978 27.7571 242.902 3.64946 242.759 0.742369C243.885 0.581643 245.041 0.628507 246.178 0.627517C246.216 0.690719 246.279 0.787091 246.305 0.861843C246.591 1.6625 246.55 11.7846 246.201 12.6384C248.634 12.7453 259.279 13.076 260.94 12.4607C261.015 12.3267 261.074 12.2158 261.109 12.0651C261.342 11.0656 261.261 1.25607 260.911 0.620588Z" fill="#212121"/>
<path d="M463.682 0.57761C469.914 0.503682 476.227 0.413419 482.456 0.609789C482.541 0.738997 482.615 0.849228 482.651 1.0017C482.82 1.70203 482.838 2.77876 482.518 3.41441C480.904 4.07183 469.651 3.70071 467.027 3.7291C467.089 3.8418 467.111 3.8654 467.146 4.00946C467.408 5.10583 467.165 11.8685 466.736 12.6727C471.551 12.9012 476.389 12.5514 481.206 12.7395C481.317 12.8765 481.332 12.8807 481.409 13.0705C481.662 13.6906 481.616 15.003 481.33 15.6076C477.024 16.021 472.431 15.7248 468.092 15.7199C467.938 15.7255 467.743 15.7197 467.591 15.7629C466.067 16.1959 467.773 23.8278 466.951 25.4349C472.136 25.6034 477.337 25.308 482.521 25.5116C482.6 25.625 482.668 25.7185 482.708 25.8545C482.912 26.5788 482.889 27.7147 482.504 28.3707C480.378 28.623 478.054 28.4509 475.914 28.4489C471.688 28.4576 467.461 28.4397 463.236 28.3949C464.344 26.5529 462.846 1.68933 463.682 0.57761Z" fill="#212121"/>
<path d="M93.8943 0.563525C95.1134 0.473426 96.3358 0.5127 97.5548 0.529037C97.5895 4.7292 97.4921 8.94009 97.4673 13.1412C97.4541 15.4759 97.2658 17.9866 97.6936 20.285C97.9546 21.6782 98.4749 23.0333 99.4478 24.0884C100.766 25.5196 102.644 26.0602 104.542 26.112C106.766 26.1728 109.225 25.617 110.864 24.0198C111.731 23.1741 112.198 22.2366 112.45 21.0617C112.975 18.5987 112.722 15.7228 112.725 13.2054L112.767 0.65016C113.963 0.512042 115.183 0.587455 116.384 0.614682L116.397 12.5691C116.388 15.2038 116.455 17.8592 116.181 20.4818C115.879 22.7383 115.223 24.7774 113.56 26.4191C111.331 28.6191 108.117 29.2498 105.092 29.2249C102.073 29.2002 98.9556 28.6792 96.7636 26.4307C95.5594 25.1964 94.7351 23.5983 94.3222 21.9328C93.5194 18.7054 93.8018 15.0018 93.8117 11.7005C93.8068 7.98795 93.8349 4.27557 93.8943 0.563525Z" fill="#212121"/>
<path d="M371.893 0.0825463C372.13 0.0703351 372.368 0.0617544 372.605 0.056969C375.947 -0.0275195 379.499 0.564725 381.993 2.97892C383.162 4.11109 384.976 6.77693 384.908 8.44558C384.897 8.75218 384.859 8.71208 384.661 8.90812C383.603 9.15053 382.422 9.02809 381.344 9.00449C381.446 8.47496 381.228 7.96027 381.026 7.47727C380.244 5.59459 378.8 4.51291 376.95 3.78469C374.606 2.86208 371.867 2.78568 369.545 3.82165C367.237 4.85136 365.564 6.87033 364.7 9.21637C363.38 12.8005 363.649 17.5651 365.298 20.9999C366.287 23.0637 367.765 24.669 369.962 25.4273C372.186 26.1948 375.21 26.4639 377.379 25.3713C377.956 25.0811 378.772 24.5457 378.978 23.9164C380.86 23.1682 381.002 20.1391 381.808 18.6131C381.97 18.3076 382.156 18.132 382.492 18.0393C383.185 17.8466 384.556 17.8502 385.168 18.2456C385.422 19.9621 384.12 22.7542 383.22 24.1858C381.664 26.6571 379.276 28.2948 376.428 28.9226C373.114 29.6527 369.077 29.1903 366.198 27.3268C363.168 25.3662 361.327 22.1532 360.615 18.6695C359.7 14.188 360.387 9.02132 362.982 5.20647C365.195 1.95136 368.169 0.788817 371.893 0.0825463Z" fill="#212121"/>
<path d="M437.906 47.2773C439.708 46.9634 442.193 46.8905 443.843 47.7527C444.188 47.9919 444.444 48.256 444.646 48.6307C444.991 49.2745 445.141 50.1438 444.884 50.8439C444.545 51.7657 442.974 52.2111 442.117 52.5865C442.142 53.2322 443.937 55.1951 444.291 56.0791C444.454 56.4857 444.491 56.6542 444.312 57.0406C443.889 57.1687 443.655 57.1091 443.235 56.99C443.019 56.6678 442.802 56.3809 442.533 56.102L442.457 56.0249C442.46 55.8127 442.446 55.6596 442.351 55.4649C441.839 54.405 440.69 52.767 439.576 52.3205C439.348 52.3471 439.259 52.3109 439.086 52.4822C438.415 53.1436 438.529 55.8223 438.473 56.7712C438.313 57.0441 438.162 57.086 437.883 57.206L437.551 57.0117C436.834 55.702 436.745 49.8423 437.056 48.2469C437.15 47.7626 437.525 47.5423 437.906 47.2773ZM438.622 51.0452C439.634 51.0941 441.436 51.3377 442.294 50.7249C442.338 50.6924 442.375 50.6495 442.416 50.6119C442.885 50.4388 443.118 50.3162 443.392 49.8909C443.435 49.5418 443.498 49.4277 443.276 49.1282C442.981 48.7304 442.351 48.5824 441.884 48.5444C440.944 48.468 439.93 48.5317 438.988 48.5974C438.688 49.3977 439.01 50.3307 438.622 51.0452Z" fill="#212121"/>
<path d="M61.6093 0.667602C64.2171 0.493675 66.9013 0.611168 69.5174 0.609848L83.8759 0.606381L83.8428 3.67701C80.7144 3.77305 77.5809 3.63724 74.4508 3.74929L74.4042 19.2245L74.4063 28.4996C73.1975 28.5358 72.0074 28.5112 70.8002 28.4589C70.6976 20.1932 70.9243 11.9473 70.9011 3.68576C67.8363 3.44929 64.6656 3.6384 61.5857 3.59467L61.6093 0.667602Z" fill="#212121"/>
<path d="M195.671 0.639939C196.864 0.588124 198.06 0.619805 199.252 0.633667C199.335 0.764195 199.408 0.87129 199.437 1.02624C199.787 2.85231 199.551 7.76849 199.568 9.85529L199.639 19.655C199.649 21.3383 199.756 23.0817 199.631 24.7566C199.609 25.0467 199.522 25.2262 199.381 25.4753C202.581 25.5728 205.797 25.4911 209 25.4802C210.582 25.4748 212.261 25.3606 213.825 25.5794C214.208 26.038 214.32 26.2985 214.259 26.9343C214.223 27.3114 214.152 27.7088 213.982 28.0479L213.899 28.2566C212.976 28.7076 197.881 28.4104 195.428 28.4048C195.539 28.2299 195.631 28.0792 195.679 27.8753C195.934 26.7743 195.802 25.2827 195.826 24.1422C195.891 20.4599 195.914 16.7769 195.897 13.0941C195.911 9.25842 196.18 5.26387 195.92 1.44571C195.899 1.13647 195.825 0.90578 195.671 0.639939Z" fill="#212121"/>
<path d="M310.886 0.742649C312.014 0.692484 313.101 0.690999 314.229 0.754035C314.424 1.13951 314.426 1.44265 314.432 1.86377C314.543 7.84513 314.451 13.8471 314.437 19.8303C314.434 21.3844 314.578 26.876 314.274 27.9648C314.254 28.0308 313.986 28.2628 313.924 28.328C313.06 28.7121 311.552 28.4915 310.602 28.4575C311.248 27.1704 310.785 9.38654 310.767 6.12565C310.759 4.57961 310.432 2.16988 310.886 0.742649Z" fill="#212121"/>
<path d="M229.106 133.746C229.666 133.68 230.421 133.589 230.969 133.718C231.285 133.791 231.432 133.903 231.581 134.18C232.915 136.695 233.9 140.107 234.972 142.819C235.752 144.791 236.86 146.852 237.405 148.886C237.479 149.165 237.451 149.413 237.365 149.682C236.675 149.795 235.927 149.751 235.226 149.756C235.269 149.622 235.282 149.611 235.281 149.446C235.271 148.327 234.186 145.682 233.396 144.886L231.052 144.873C229.978 144.868 228.089 144.607 227.106 145.046C226.153 145.47 225.911 147.49 225.541 148.408C225.332 148.924 225.015 149.518 224.448 149.706C224.007 149.855 223.493 149.837 223.087 149.614C223.055 149.18 228.417 135.142 229.106 133.746ZM227.132 143.223L230.226 143.248C231.057 143.241 231.984 143.312 232.8 143.17C232.928 142.221 231.287 137.868 230.702 137.046C230.495 136.754 230.317 136.736 229.975 136.715C229.93 136.713 229.884 136.716 229.84 136.716C229.166 138.178 227.927 142.366 227.132 143.223Z" fill="#212121"/>
<path d="M267.956 149.701C267.982 149.678 268.011 149.658 268.035 149.635C268.078 149.597 268.12 149.559 268.163 149.521C270.117 147.812 273.097 138.972 274.051 136.346C274.274 135.734 274.471 134.445 274.836 133.978C274.92 133.873 275.128 133.756 275.241 133.668C275.692 133.559 276.042 133.541 276.493 133.672C277.002 133.82 277.505 134.12 277.747 134.607C277.945 135.011 278.105 135.531 277.975 135.967C278.029 136.403 278.08 136.84 278.138 137.274C278.206 137.764 278.176 138.025 277.946 138.465C277.642 138.643 277.279 138.609 276.936 138.619C276.891 137.96 276.546 137.337 276.286 136.736L276.03 136.599C274.43 137.63 274.563 141.761 272.796 143.106C274.314 143.152 275.941 143.049 277.441 143.208C277.885 143.279 278.711 143.426 279.141 143.282C279.479 143.168 279.431 142.774 279.559 142.469C279.919 142.721 279.944 142.785 280.401 142.767C280.573 142.908 280.765 143.036 280.874 143.236C281.329 144.071 283.464 149.016 283.302 149.736C282.56 149.809 281.812 149.764 281.068 149.744C281.067 149.693 281.065 149.64 281.062 149.589C280.989 148.579 279.679 145.597 278.946 144.934C276.798 144.921 274.656 144.906 272.51 144.993C272.514 145.011 272.518 145.03 272.52 145.048C272.618 145.818 271.478 148.845 270.949 149.442C270.497 149.954 268.64 149.723 267.956 149.701Z" fill="#212121"/>
<path d="M208.425 135.507C208.096 135.36 207.794 135.29 207.682 134.903C207.626 134.711 207.627 134.482 207.616 134.282C207.936 133.838 208.148 133.772 208.699 133.683C209.851 133.502 219.246 133.582 220.195 133.833C220.565 134.158 220.56 134.19 220.66 134.644C220.556 134.939 220.538 135.168 220.234 135.325C219.309 135.802 216.367 135.386 215.166 135.447C215.622 136.274 215.495 147.842 215.13 149.274C215.102 149.384 215.056 149.5 215.016 149.606C214.42 149.837 213.855 149.813 213.225 149.815C212.624 148.581 213.929 137.049 212.837 135.426C211.389 135.561 209.882 135.5 208.425 135.507Z" fill="#212121"/>
<path d="M243.647 133.746C244.386 133.621 244.954 133.475 245.602 133.929C245.859 135.551 246.003 146.989 245.453 147.969C248.312 148.233 251.433 147.635 254.226 148.117C254.449 148.155 254.459 148.269 254.586 148.446C254.626 148.824 254.662 149.107 254.535 149.477L253.927 149.706C252.592 150.122 245.037 149.779 243.109 149.754C244.282 147.89 242.921 136.891 243.647 133.746Z" fill="#212121"/>
<path d="M260.511 133.746L260.699 133.72C261.388 133.627 261.912 133.536 262.49 133.982C262.796 135.071 262.772 147.149 262.601 148.754C262.546 149.261 262.574 149.261 262.173 149.588C261.712 149.701 261.045 149.791 260.612 149.573C260.366 148.173 260.562 146.515 260.579 145.091C260.62 141.427 260.823 137.548 260.524 133.904L260.511 133.746Z" fill="#212121"/>
<path d="M199.7 133.746C200.271 133.705 200.828 133.62 201.347 133.901C201.418 134.046 201.469 134.153 201.5 134.312C201.818 135.861 201.775 146.644 201.527 148.746C201.491 149.063 201.401 149.254 201.216 149.513C201.02 149.703 200.734 149.752 200.458 149.754C200.035 149.756 199.812 149.688 199.518 149.408C199.52 147.571 199.363 134.554 199.7 133.746Z" fill="#212121"/>
<path d="M434.892 56.792C437.107 58.3803 438.911 59.5064 441.791 59.0668C442.731 58.9234 444.226 58.2973 444.841 57.5578C444.88 57.5098 444.912 57.4542 444.946 57.4026L445.065 57.3889C445.553 57.3286 446.317 57.0143 446.737 57.1971C446.752 57.5177 446.753 57.8139 446.714 58.1344C445.037 59.8186 442.748 60.7478 440.371 60.708C437.994 60.6681 435.736 59.6625 434.119 57.923C434.085 57.677 434.234 57.3267 434.272 57.0692L434.297 56.8984L434.892 56.792Z" fill="#212121"/>
<path d="M435.252 45.0164C435.326 45.3338 435.386 45.6409 435.541 45.9307L436.045 46.0337C435.784 46.4642 434.11 48.5581 433.724 48.9825C433.726 49.0162 433.727 49.0497 433.729 49.0834C433.744 49.8183 433.542 50.5528 433.425 51.2769C433.199 52.6716 433.803 54.3198 434.314 55.6157C434.383 55.7909 434.36 55.7271 434.366 55.9541C434.695 56.2779 434.812 56.3254 434.892 56.7921L434.297 56.8985L434.272 57.0693C434.234 57.3268 434.086 57.6771 434.119 57.9231C432.435 56.1142 431.598 53.6779 431.814 51.218C432.031 48.7581 433.28 46.5046 435.252 45.0164Z" fill="#212121"/>
<path d="M446.187 45.3408C448.039 46.9179 449.147 49.1946 449.248 51.6228C449.347 54.051 448.428 56.4109 446.714 58.1345C446.753 57.8141 446.752 57.5179 446.737 57.1973C446.317 57.0144 445.553 57.3288 445.065 57.389L444.946 57.4027C445.472 57.1279 445.931 56.6444 446.284 56.1737C447.495 54.5586 447.963 52.4476 447.669 50.4581C447.409 48.7176 446.509 47.4058 445.103 46.3832C445.5 46.3111 445.781 46.3218 446.18 46.389L446.312 46.4124L446.187 45.3408Z" fill="#212121"/>
<path d="M435.252 45.0164C438.522 42.5491 443.07 42.6839 446.187 45.3408L446.312 46.4124L446.18 46.389C445.781 46.3219 445.5 46.3111 445.103 46.3832C444.666 45.7474 443.608 45.1679 442.887 44.905C440.551 44.0545 438.156 45.0596 436.045 46.0337L435.541 45.9308C435.386 45.641 435.326 45.3339 435.252 45.0164Z" fill="#212121"/>
<path d="M277.975 135.967C278.662 136.553 280.363 141.168 280.467 142.254C280.485 142.436 280.449 142.594 280.401 142.767C279.944 142.786 279.919 142.721 279.559 142.469C279.431 142.774 279.479 143.168 279.141 143.282C278.711 143.426 277.885 143.279 277.441 143.208C277.795 143.182 278.039 143.17 278.345 142.967C278.678 141.721 277.512 139.701 276.936 138.619C277.279 138.609 277.643 138.644 277.946 138.465C278.176 138.025 278.206 137.764 278.138 137.274C278.08 136.84 278.029 136.403 277.975 135.967Z" fill="#212121"/>
</g>
<defs>
<clipPath id="clip0_94_10">
<rect width="483" height="150" fill="white"/>
</clipPath>
</defs>
</svg>
