<svg width="1189" height="150" viewBox="0 0 1189 150" fill="none" xmlns="http://www.w3.org/2000/svg">
<g clip-path="url(#clip0_61_58)">
<path d="M186.142 24.7076C198.759 24.1516 210.73 25.5153 220.893 33.6846C230.386 41.3152 235.569 52.4696 236.871 64.4523C238.36 78.1541 235.93 92.9262 227.108 103.879C219.083 113.841 208.211 117.827 195.821 119.169C183.962 120.101 171.338 117.316 162.059 109.569C152.693 101.75 147.774 89.9897 146.715 78.0191C145.51 64.4028 147.969 49.768 156.975 39.0428C164.299 30.3201 174.953 25.6737 186.142 24.7076ZM194.837 102.68C200.602 102.206 205.537 99.399 209.256 94.994C215.305 87.8287 217.544 77.6007 216.75 68.3844C216.046 60.213 212.902 51.2394 206.47 45.8621C201.357 41.5873 195.112 40.2088 188.586 40.8255C188.16 40.8639 187.736 40.9165 187.315 40.9833C179.436 43.5243 174.508 46.4878 170.561 54.2282C165.911 63.3466 165.602 75.1088 168.759 84.7442C170.892 91.2541 174.898 97.3109 181.141 100.478C185.638 102.758 189.946 102.831 194.837 102.68Z" fill="#212121"/>
<path d="M620.896 24.7092C632.895 24.0617 643.861 25.7854 653.196 33.9221C662.622 42.1378 667.454 54.4779 668.283 66.7542C669.235 80.8355 666.326 95.4399 656.812 106.3C649.665 114.459 639.992 118.549 629.284 119.246C629.192 119.261 629.101 119.274 629.008 119.283C618.937 120.357 607.986 117.276 600.088 110.955C590.643 103.395 585.348 91.3662 584.033 79.5242C582.468 65.4221 584.994 50.1226 594.05 38.827C600.852 30.3439 610.225 25.8927 620.896 24.7092ZM631.871 108.84C638.614 107.933 644.848 103.313 648.892 98.0272C656.102 88.6052 657.893 75.8587 656.344 64.3437C655.118 55.2263 650.827 45.7337 643.382 40.0741C636.184 34.6011 627.487 33.8604 618.797 35.0456C618.51 35.0835 618.225 35.1263 617.94 35.1741C608.737 38.8582 602.695 44.3041 598.761 53.4684C594.07 64.397 594.052 78.7919 598.471 89.8137C601.521 97.4204 606.961 104.018 614.629 107.276C618.498 108.919 627.316 110.698 631.486 109.017C631.617 108.964 631.744 108.904 631.871 108.84Z" fill="#212121"/>
<path d="M395.886 24.7093C405.912 24.0308 415.21 25.5263 423.802 30.9697C433.576 37.1631 440.132 47.4074 442.627 58.6239C443.57 62.8635 445.34 73.3986 442.93 77.1979L376.51 77.2079C380.238 81.7597 378.228 91.0797 385.93 97.7153C390.76 101.877 397.843 103.194 404.04 102.706C409.323 102.291 415.287 100.323 418.818 96.1695C420.413 94.2941 422.506 90.8009 422.298 88.2789L429.937 88.2992L441.624 88.3051C441.762 88.6187 441.842 88.9416 441.874 89.2822C442.335 94.128 436.605 102.482 433.54 106.098C426.825 114.019 415.666 118.345 405.533 119.19C393.893 120.159 381.655 117.303 372.62 109.648C363.303 101.753 358.67 89.5373 357.679 77.6089C356.536 63.8467 359.873 49.3151 368.933 38.6196C369.355 38.1274 369.788 37.6457 370.232 37.1744C370.677 36.7031 371.133 36.2429 371.6 35.7936C372.067 35.3443 372.545 34.9066 373.033 34.4804C373.522 34.0542 374.02 33.64 374.527 33.2378C375.036 32.8357 375.553 32.446 376.08 32.0689C376.607 31.6917 377.143 31.3274 377.687 30.9761C378.232 30.6248 378.784 30.2869 379.345 29.9622C379.906 29.6376 380.475 29.3267 381.051 29.0295C381.627 28.7324 382.209 28.4493 382.798 28.1802C383.388 27.9112 383.984 27.6565 384.586 27.4161C385.187 27.1759 385.795 26.9502 386.407 26.7393C387.02 26.5283 387.637 26.3322 388.259 26.1511C388.882 25.9699 389.508 25.8038 390.138 25.6529C390.768 25.502 391.401 25.3663 392.039 25.246C392.675 25.1256 393.314 25.0206 393.956 24.9311C394.597 24.8417 395.241 24.7677 395.886 24.7093ZM376.334 63.6114L403.202 63.6989L422.705 63.6693C423.142 58.4758 420.56 52.2372 417.268 48.3433C413.625 44.0347 408.017 41.1398 402.386 40.6816C400.435 40.5228 398.479 40.7528 396.543 40.9877C391.687 42.4937 385.12 44.9164 382.604 49.69C380.767 53.1787 378.825 61.1173 376.334 63.6114Z" fill="#212121"/>
<path d="M912.153 24.7093C919.659 24.3014 927.029 24.6558 933.951 27.8875C943.549 32.3715 949.683 40.5771 953.215 50.3537C955.333 56.2099 958.434 69.6039 955.723 75.3798L886.814 75.3808C890.838 80.5704 888.406 93.3179 899.394 103.291C905.011 108.387 912.551 109.733 919.896 109.352C927.215 108.971 933.052 105.956 937.924 100.519C939.245 99.0416 941.007 97.1738 940.88 95.0577C941.524 94.617 941.973 94.0789 942.354 93.4043C943.405 91.5568 944.54 88.6687 943.947 86.5526C947.768 86.539 951.589 86.6009 955.409 86.6272C955.587 87.0492 955.714 87.4814 955.782 87.9365C956.528 93.1907 950.911 102.255 947.793 106.303C942.007 113.831 933.857 117.742 924.589 118.947C913.449 120.398 901.732 118.99 892.6 111.947C883.671 105.064 878.655 94.0594 877.249 83.0518C875.368 68.302 876.961 50.9105 886.365 38.7888C892.998 30.2285 901.512 26.0509 912.153 24.7093ZM917.558 65.3095L944.091 65.2673C945.472 62.528 944.201 57.1454 943.269 54.345C940.914 47.2605 935.323 40.3783 928.639 37.0738C924.327 34.9407 918.659 33.7633 913.847 34.5929C906.045 35.7729 900.225 39.2107 895.489 45.6522C892.761 49.3514 887.763 58.3219 888.44 62.9467C888.627 64.1815 889.008 64.3651 889.948 65.0771C898.556 66.5498 908.755 65.2891 917.558 65.3095Z" fill="#212121"/>
<path d="M301.015 24.7091C308.972 24.1592 317.489 24.85 324.391 29.2074C330.54 33.0887 334.404 39.2973 335.973 46.3222C337.401 52.713 338.191 113.571 336.099 116.871L315.962 116.89C316.257 116.437 316.526 115.92 316.655 115.394C317.647 111.349 316.974 63.2927 316.297 57.5104C315.886 53.9987 315.105 50.4957 313.267 47.4326C313.03 47.0277 312.772 46.6357 312.495 46.2567C312.218 45.8777 311.923 45.5136 311.609 45.1642C311.295 44.8149 310.965 44.4822 310.617 44.1662C310.27 43.8501 309.908 43.5523 309.531 43.2726C309.154 42.993 308.764 42.733 308.361 42.4926C307.957 42.2522 307.542 42.0327 307.117 41.8339C306.692 41.6352 306.258 41.4583 305.815 41.3033C305.371 41.1483 304.922 41.0159 304.465 40.906C297.526 39.2144 290.808 42.2298 285.011 45.7487C283.61 50.4552 279.402 50.9885 278.315 60.8584C277.391 69.2356 279.196 113.19 276.848 116.859L256.668 116.899C256.97 116.471 257.199 116.006 257.338 115.5C258.359 111.79 257.879 38.4481 257.496 30.326C257.441 29.1565 257.214 28.2554 256.619 27.2353L276.436 27.1671C276.497 27.2577 276.555 27.3505 276.603 27.4489C277.659 29.6083 277.151 37.5435 276.355 39.8431C276.492 39.7633 276.622 39.6768 276.752 39.5886C278.199 38.6126 279.427 36.5773 280.677 35.282C286.63 29.1163 292.576 25.9534 301.015 24.7091Z" fill="#212121"/>
<path d="M724.601 24.7093C732.999 24.2814 741.938 24.4293 749.309 29.0367C755.326 32.7975 758.971 39.0105 760.522 45.8261C762.002 52.3297 762.694 113.553 760.614 116.863L748.863 116.914C749.069 116.601 749.257 116.259 749.399 115.912C750.261 113.808 750.086 60.6811 749.697 55.2425C749.472 52.105 748.901 48.995 747.704 46.0731C745.884 41.63 742.626 37.8398 738.136 35.9748C730.237 32.6942 720.863 34.8709 713.312 37.9707C711.2 41.3304 706.528 42.693 703.701 49.0478C696.602 65.0085 703.599 110.21 699.528 116.867L687.906 116.886C688.216 116.413 688.467 115.894 688.61 115.345C689.521 111.823 689.142 38.1873 688.745 30.3498C688.687 29.189 688.46 28.2953 687.856 27.2887L699.406 27.2659C699.465 27.3533 699.522 27.4404 699.577 27.5302C701.429 30.5877 700.589 38.0538 699.76 41.474C701.142 40.461 702.325 38.0765 703.364 36.6874C708.803 29.4148 715.805 25.9877 724.601 24.7093Z" fill="#212121"/>
<path d="M819.082 24.7093C825.943 24.276 833.127 24.5813 839.66 26.8941C840.145 27.0635 840.625 27.2447 841.1 27.4378C841.576 27.6309 842.047 27.8357 842.513 28.0522C842.978 28.2687 843.438 28.4966 843.892 28.7358C844.346 28.9751 844.795 29.2255 845.236 29.4869C845.678 29.7485 846.113 30.0207 846.542 30.3038C846.969 30.5868 847.389 30.8804 847.801 31.1843C848.219 31.4883 848.626 31.8023 849.021 32.1263C849.422 32.4504 849.812 32.7841 850.19 33.1275C850.575 33.471 850.947 33.8236 851.309 34.1855C851.676 34.5474 852.032 34.9181 852.376 35.2976C852.721 35.6772 853.057 36.065 853.384 36.4612C853.712 36.8573 854.028 37.2614 854.333 37.6733C854.644 38.0852 854.94 38.5044 855.223 38.9309C855.511 39.3575 855.787 39.7909 856.053 40.2311C856.313 40.6713 856.564 41.1178 856.807 41.5706C857.05 42.0233 857.281 42.4818 857.502 42.9461C859.272 46.6653 861.441 51.7342 859.984 55.8284L849.284 55.8718C849.239 55.4205 849.171 54.973 849.081 54.5293C847.768 48.2316 843.941 41.5532 838.533 38.0108C832.675 34.1743 824.618 33.6463 817.872 35.0882C810.442 36.6763 804.203 41.4781 800.113 47.8014C793.609 57.8581 792.313 70.8916 794.776 82.431C796.691 91.406 801.124 99.806 809 104.891C815.166 108.871 823.05 110.597 830.286 109.008C833.372 108.331 838.257 106.12 840.022 103.37C843.153 102.019 845.453 98.1475 846.955 95.2585C848.488 92.3043 850.521 87.2857 849.47 83.9488C853.232 83.9284 857.002 83.9996 860.772 84.0272C860.941 84.5246 861.068 85.0297 861.144 85.5518C861.992 91.845 856.578 101.729 852.859 106.566C847.48 113.58 838.356 118.065 829.681 119.199C819.369 120.548 808.177 118.273 799.851 111.865C789.559 103.943 784.095 92.4399 782.448 79.7316C780.656 65.905 783.412 50.5452 792.06 39.3496C798.773 30.6591 808.338 26.0816 819.082 24.7093Z" fill="#212121"/>
<path d="M526.158 24.7091C534.339 24.1572 542.591 24.7592 550.094 28.2959C558.104 32.0712 563.038 38.2156 565.993 46.4407C566.991 49.2192 568.433 52.9676 567.098 55.7973L555.919 55.8428C556.023 55.1 556.013 54.3508 555.864 53.6155C554.599 47.4078 551.355 41.9386 546.02 38.4255C539.989 34.4541 532.201 33.5769 525.224 35.0341C517.718 36.6017 511.416 41.3872 507.269 47.7617C500.889 57.5671 499.211 70.4506 501.608 81.7832C503.555 90.9898 508 99.8932 516.105 105.142C521.913 108.903 529.626 110.461 536.412 108.977C539.78 108.241 545.165 106.37 547.113 103.339C549.97 102.091 552.076 98.8194 553.516 96.2033C555.22 93.1067 557.558 87.572 556.521 83.998L567.971 84.0187C568.045 84.3017 568.098 84.5887 568.128 84.8796C568.879 91.9415 564.093 101.333 559.763 106.723C553.873 114.055 545.423 118.174 536.174 119.173C525.346 120.343 514.156 117.781 505.598 110.883C495.448 102.7 490.557 90.4483 489.21 77.7502C487.8 64.4567 491.273 49.1472 499.778 38.6329C506.342 30.5188 515.842 25.7906 526.158 24.7091Z" fill="#212121"/>
<path d="M99.2634 92.4458L123.71 92.4797L123.749 116.861L99.2473 116.904L99.2634 92.4458Z" fill="#212121"/>
<path d="M985.213 43.1805C988.203 40.7282 989.932 36.8181 992.583 33.9519C999.81 26.1225 1012.94 23.5851 1023.15 24.5944C1033.02 25.5705 1041.63 30.3932 1047.88 38.0305C1057.42 49.7032 1059.32 65.7255 1057.84 80.2802C1056.65 92.078 1051.84 103.727 1042.5 111.363C1034.48 117.909 1023.78 120.275 1013.62 119.242C1005.38 118.404 997.378 114.931 992.084 108.424C990.22 106.13 988.136 101.788 985.84 100.205C987.365 103.619 987.763 145.389 986.45 148.773C986.28 149.206 986.063 149.615 985.798 150H974.284C974.928 148.892 975.089 147.946 975.132 146.686C976.106 118.752 975.208 90.4661 975.199 62.4989C975.191 56.6036 976.08 33.1902 974.945 28.9214C974.787 28.3206 974.53 27.7645 974.174 27.2531L985.306 27.2664C986.746 29.8827 986.543 38.9702 985.662 41.9958C985.543 42.4023 985.394 42.7972 985.213 43.1805ZM1017.52 109.416C1024.69 109.461 1030.99 107.275 1036.18 102.142C1044.02 94.3738 1046.74 82.4298 1046.76 71.7134C1046.78 61.1167 1043.93 49.3766 1036.22 41.6909C1030.73 36.2166 1024.14 34.3377 1016.57 34.3882C1015.82 34.397 1015.08 34.4652 1014.35 34.5929C1006.72 35.1641 1000.33 37.779 995.227 43.6883C988.144 51.8905 986.255 65.0209 987.051 75.5425C987.814 85.6712 990.991 96.3314 998.963 103.153C1004.29 107.709 1010.62 109.474 1017.52 109.416Z" fill="#212121"/>
<path d="M3.50318 27.2326L76.9916 27.1677L77.0254 40.7903C59.6919 60.6407 42.737 80.8415 25.6789 100.93C43.311 100.856 62.0738 99.8525 79.5798 100.906L79.6197 116.88L0 116.864V102.429C9.83349 89.8914 20.1801 77.7162 30.3058 65.4115C36.3875 58.0211 42.2794 49.8786 48.9724 43.0551L3.48955 43.1153L3.50318 27.2326Z" fill="#212121"/>
<path d="M1085.26 0H1095.95C1096.32 0.333892 1096.67 0.745063 1096.83 1.2268C1097.88 4.40919 1097.72 24.4097 1096.28 27.259L1114.89 27.2506C1115.1 27.5513 1115.27 27.8788 1115.38 28.2329C1116.1 30.5945 1116.07 35.035 1114.89 37.1921C1108.62 37.215 1102.34 37.1796 1096.07 37.086C1098.56 40.8547 1097 84.3953 1097.07 92.3568C1097.1 96.5644 1096.94 102.805 1100.22 105.957C1103.17 108.791 1110.92 107.74 1114.84 107.649C1115.09 108.007 1115.3 108.408 1115.41 108.833C1116.08 111.32 1116.07 115.486 1114.75 117.713C1108.88 117.792 1102.34 118.374 1096.62 116.986C1092.63 116.016 1089.73 114.018 1087.98 110.236C1082.53 98.3788 1089.3 43.9015 1085.2 37.1937L1069.11 37.2379C1069.4 36.8513 1069.61 36.4278 1069.74 35.9673C1070.48 33.3873 1070.34 29.5986 1069.03 27.2445L1085.31 27.2528C1085.57 26.8991 1085.79 26.4953 1085.89 26.0643C1086.76 22.5153 1086.8 2.64359 1085.26 0Z" fill="#212121"/>
</g>
<defs>
<clipPath id="clip0_61_58">
<rect width="1189" height="150" fill="white"/>
</clipPath>
</defs>
</svg>
