<svg width="384" height="683" viewBox="0 0 384 683" fill="none" xmlns="http://www.w3.org/2000/svg">
<path d="M300.349 447.275C314.721 446.726 328.5 447.275 343.656 446.949C351.5 446.781 357.5 450.5 357.5 458C357.5 467.5 351 468.308 343.656 468.64C336.313 468.972 291.718 468.873 291.718 468.873C291.718 468.873 252.989 469.13 233.74 471.018C224.755 471.899 215.122 475.746 208.675 482.091C195.947 494.621 198.794 515.243 198.893 531.546C198.921 577.441 198.802 664.208 198.802 670.104C198.802 676 195.5 682.5 189 682.5C182.5 682.5 178.941 675.5 178.941 670.155C179.214 628.022 179.203 587.149 179.214 546.287C179.207 531.153 180.681 514.902 178.775 499.917C177.354 488.754 171.911 479.413 161.551 474.276C148 467.556 74.5 468.739 39 468.739C34.3034 467.437 29.7233 464.563 29.4774 459.149C29.2668 454.515 34.1594 450.028 38.3931 449.009C48.5157 446.613 60.4095 447.561 70.8153 447.559L300.349 447.275Z" fill="#3D3D3D"/>
<path d="M231.747 262.223C251.359 264.669 269.457 309.635 298.848 312.342C327.377 314.969 343.462 282.393 362.804 267.363C366.177 264.742 370.485 262.264 374.936 263.077C377.88 263.613 380.283 265.579 381.9 268.032C388.484 278.024 357.252 303.021 350.234 309.787C345.618 314.237 340.842 319.189 337.292 324.553C335.344 327.498 334.165 331.49 333.4 334.931C326.236 367.195 365.605 383.472 378.917 404.824C380.621 407.554 382.236 411.454 381.119 414.705C379.728 418.752 376.462 420.322 372.821 422.094C351.182 419.263 334.553 376.931 307.452 372.305C277.846 367.252 262.161 404.308 241.625 418.161C238.338 420.377 234.204 422.129 230.177 421.238C227.645 420.679 224.922 418.75 223.77 416.385C216.519 401.496 265.602 374.126 271.434 349.853C279.111 317.898 237.491 300.939 224.995 279.408C223.34 276.557 222.118 272.92 223.174 269.645C224.452 265.687 228.262 263.891 231.747 262.223Z" fill="#3D3D3D"/>
<path d="M9.61781 262.38C22.0244 263.671 32.0267 278.021 40.0924 286.507C51.0791 298.066 64.0572 312.11 81.2912 312.231C105.316 312.398 122.73 285.388 138.537 270.493C142.249 266.994 147.897 262.196 153.444 262.869C156.1 263.192 158.098 264.47 159.605 266.656C170.07 281.846 116.131 312.693 111.782 336.775C106.397 366.59 143.745 382.793 157.472 403.7C159.471 406.745 161.213 410.675 160.209 414.374C159.221 418.005 156.366 419.851 153.334 421.726C130.797 422.081 113.15 373.309 83.5534 371.823C59.8777 370.634 40.3461 399.955 24.6085 414.058C20.698 417.563 14.8792 421.942 9.28209 421.213C6.95132 420.908 4.92336 419.535 3.65928 417.582C-6.39064 402.044 45.4154 373.107 50.7413 350.536C58.5391 317.492 16.5236 301.321 3.8889 278.718C2.25123 275.788 1.04142 272.143 2.24084 268.84C3.51025 265.343 6.43045 263.86 9.61781 262.38Z" fill="#3D3D3D"/>
<path d="M186.19 140.188L186.893 140.164C190.22 140.081 193.007 140.392 195.454 142.888C201.765 149.321 199.275 164.478 199.442 172.816C199.618 181.637 202.251 190.059 207.855 196.978C223.312 216.06 249.826 213.257 271.736 212.888L313.544 212.568C323.149 212.442 334.118 211.277 343.543 212.931C346.57 213.462 350.056 214.592 352.155 216.959C353.831 218.848 354.116 221.363 353.724 223.768C353.066 227.807 350.012 230.001 346.946 232.335C330.942 234.751 314.011 232.791 297.834 232.748L197.142 232.684L52.6952 233.286C46.2875 233.268 37.2017 233.559 32.5029 228.437C30.6935 226.464 30.0072 224.051 30.3195 221.395C30.7884 217.407 34.5978 214.266 38.2595 213.195C44.6097 211.337 54.0257 212.477 60.6764 212.515L111.8 212.79C124.649 212.88 138.264 213.897 150.964 211.596C155.878 210.707 160.617 208.975 164.677 206.032C183.4 192.453 176.001 168.125 179.64 149.535C180.553 144.873 182.279 142.782 186.19 140.188Z" fill="#3D3D3D"/>
<path d="M77.1309 1.01562C80.393 1.15216 83.4345 1.32997 85.9473 3.65104C92.889 10.0633 90.5258 26.0505 91.0944 34.8775C91.7939 45.7367 94.2582 55.1543 102.056 63.2367C120.937 82.8071 148.579 68.9235 159.953 79.7144C161.525 81.2068 162.346 83.1865 162.395 85.3393C162.708 98.8942 131.59 95.6682 122.987 96.5906C116.641 97.2701 109.572 98.9132 104.044 102.176C79.6498 116.577 100.247 143.858 84.9144 159.624C82.753 160.65 80.5241 161.357 78.0909 161.195C60.6958 160.039 73.4496 119.495 60.7293 104.938C49.9277 92.5771 29.2445 96.7001 14.6145 95.4157C10.5311 95.0569 4.77978 94.1996 2.2373 90.5053C0.865736 88.5113 0.0893546 85.6187 0.791103 83.2214C3.65652 73.4307 29.8844 75.6025 38.332 74.288C40.583 73.9588 42.7818 73.4185 44.9284 72.6671C47.075 71.9156 49.1298 70.9668 51.093 69.8205C75.6892 55.1448 62.5529 31.3657 68.6483 10.8143C70.1515 5.74666 72.5319 3.44782 77.1309 1.01562Z" fill="#3D3D3D"/>
<path d="M297.3 1.12793C300.211 1.14698 303.168 1.39784 305.568 3.21722C312.958 8.81985 309.615 28.6092 310.68 37.2521C313.109 56.9859 325.711 71.7919 345.863 74.8289C355.882 76.3388 372.555 72.7555 380.52 79.5616C382.092 80.9031 383.039 82.5367 383.141 84.6419C383.257 87.036 382.523 89.511 380.811 91.2415C374.283 97.8459 358.781 96.0297 350.04 96.19C326.895 96.6123 310.949 105.955 310.401 130.962C310.24 138.295 311.583 147.309 309.222 154.342C308.462 156.606 306.98 158.195 305.351 159.886C303.382 160.737 301.048 161.759 298.836 161.569C285.877 160.448 290.372 126.419 288.164 116.808C287.362 113.312 285.331 109.777 283.032 107.049C266.55 87.4964 232.422 102.74 223.473 91.9559C221.888 90.0445 221.459 86.3628 221.928 83.9846C224.286 72.0094 247.907 75.9911 256.95 75.0734C258.348 74.9432 259.733 74.7331 261.105 74.4431C262.479 74.1521 263.83 73.7827 265.16 73.335C266.49 72.8873 267.789 72.3644 269.058 71.7664C270.326 71.1674 271.556 70.4974 272.746 69.7566C296.856 54.4648 285.825 30.6239 290.493 10.6345C291.601 5.89549 293.212 3.72841 297.3 1.12793Z" fill="#3D3D3D"/>
</svg>
