<svg width="1170" height="1170" viewBox="0 0 1170 1170" fill="none" xmlns="http://www.w3.org/2000/svg">
<g clip-path="url(#clip0_20_23)">
<path d="M250.787 356.217C314.679 352.684 364.768 363.407 418.44 398.97L402.904 412.7C366.581 383.4 324.528 367.37 277.543 367.836C225.096 368.356 176.841 387.9 140.077 425.59C96.935 469.81 78.122 531.33 79.03 592.12C79.917 651.58 101.084 711.97 144.701 753.64C185.965 793.07 238.278 807.53 294.324 806.35C335.813 804.13 373.325 790.6 406.109 765C410.608 768.71 414.666 772.83 418.793 776.94C392.429 798.87 353.165 811.9 319.696 816.92C254.278 826.74 185.472 812.18 132 772.65C84.234 737.34 55.559 684.72 47.002 626.28C37.899 564.12 50.218 495.12 88.29 444.14C128.442 390.37 185.934 365.654 250.787 356.217Z" fill="#141414"/>
<path d="M538.04 370.089C548.84 369.613 559.73 369.802 570.54 369.702C569.953 424.294 569.807 478.883 570.1 533.47C570.15 575.11 568.6 617.78 573.94 659.15C579.77 704.3 596.53 750.91 634.01 779.43C673.79 809.7 723.56 809.24 770.8 802.87C766.36 805.73 761.91 807.69 757.05 809.66C737.91 815.63 718.09 819.7 697.97 819.73C657.99 819.79 616.19 808.54 587.49 779.48C563.22 754.9 549.38 720.8 542.52 687.41C532.88 640.57 536.41 590 536.8 542.4C537.587 484.967 538 427.53 538.04 370.089Z" fill="#141414"/>
<path d="M1071.5 370.016C1071.5 370.016 1091.96 369.958 1101.5 370.016C1101.5 402 1101.09 465.42 1101.09 465.42L1101.16 651.57L1101.12 765.24C1101.11 784.25 1101.5 804 1101.5 823.34H1071C1071 798.5 1071.12 772.36 1071.1 747.04L1071.06 605.74L1071.57 456.42C1071.64 427.72 1071.5 398.5 1071.5 370.016Z" fill="#141414"/>
<path d="M899.65 370.252H925.34C925.34 412.5 924.61 453.88 924.62 495.6L924.76 698.99L925.08 778.71C925.15 793.14 926 807.5 926 823.33H899C899.5 789.5 899.84 756.48 899.81 723.14L899.83 521.27L899.65 421.91C899.6 405.19 899.65 386.5 899.65 370.252Z" fill="#141414"/>
<path d="M993.5 121.5C1000.5 120.5 1007.5 119.5 1013.29 118.495C1025.5 136.5 1044 163.5 1056.76 183.226C1042.5 169.5 1002 130 993.5 121.5Z" fill="#141414"/>
</g>
<defs>
<clipPath id="clip0_20_23">
<rect width="1058" height="706" fill="white" transform="translate(44 118)"/>
</clipPath>
</defs>
</svg>
