<svg width="24" height="24" viewBox="0 0 24 24" fill="none" xmlns="http://www.w3.org/2000/svg">
<g clip-path="url(#clip0_127_2)">
<path d="M21.1427 0H2.85733C2.09974 0.000706054 1.37337 0.301973 0.837674 0.837674C0.301973 1.37337 0.000706054 2.09974 0 2.85733V21.1427C0 22.72 1.28133 24 2.85733 24H21.1427C21.9003 23.9993 22.6266 23.698 23.1623 23.1623C23.698 22.6266 23.9993 21.9003 24 21.1427V2.85733C23.9993 2.09974 23.698 1.37337 23.1623 0.837674C22.6266 0.301973 21.9003 0.000706054 21.1427 0ZM18.86 10.4707C18.019 10.5523 17.1728 10.38 16.4307 9.976C15.8047 9.63852 15.2731 9.14993 14.884 8.55467V15.1467C14.884 16.1103 14.5983 17.0522 14.0629 17.8534C13.5276 18.6546 12.7667 19.2791 11.8764 19.6478C10.9862 20.0166 10.0066 20.113 9.06152 19.9251C8.11644 19.7371 7.24834 19.2731 6.56698 18.5917C5.88561 17.9103 5.4216 17.0422 5.23361 16.0971C5.04563 15.1521 5.14211 14.1725 5.51086 13.2822C5.87961 12.392 6.50407 11.6311 7.30526 11.0957C8.10646 10.5604 9.04841 10.2747 10.012 10.2747C10.1133 10.2747 10.212 10.284 10.312 10.2893V12.6907C10.212 12.6787 10.1147 12.66 10.012 12.66C9.3525 12.66 8.72 12.922 8.25366 13.3883C7.78732 13.8547 7.52533 14.4872 7.52533 15.1467C7.52533 15.8062 7.78732 16.4387 8.25366 16.905C8.72 17.3713 9.3525 17.6333 10.012 17.6333C11.3853 17.6333 12.5987 16.552 12.5987 15.1787L12.6227 3.98133H14.92C15.0251 4.97924 15.4776 5.90848 16.1982 6.60671C16.9189 7.30494 17.8619 7.72777 18.8627 7.80133V10.4707" fill="black"/>
</g>
<defs>
<clipPath id="clip0_127_2">
<rect width="24" height="24" fill="white"/>
</clipPath>
</defs>
</svg>
