<svg width="24" height="24" viewBox="0 0 24 24" fill="none" xmlns="http://www.w3.org/2000/svg">
<g clip-path="url(#clip0_136_3)">
<path d="M18 0H6C4.4087 0 2.88258 0.632141 1.75736 1.75736C0.632141 2.88258 0 4.4087 0 6V18C0 19.5913 0.632141 21.1174 1.75736 22.2426C2.88258 23.3679 4.4087 24 6 24H18C19.5913 24 21.1174 23.3679 22.2426 22.2426C23.3679 21.1174 24 19.5913 24 18V6C24 4.4087 23.3679 2.88258 22.2426 1.75736C21.1174 0.632141 19.5913 0 18 0ZM6.624 15.036C6.81314 15.6675 7.10505 16.2635 7.488 16.8C8.03466 17.5551 8.78939 18.1347 9.66 18.468C10.1964 18.6672 10.758 18.7968 11.328 18.852C11.888 18.9064 12.448 18.9064 13.008 18.852C13.6602 18.8009 14.2981 18.6343 14.892 18.36C15.5631 18.0323 16.1378 17.5361 16.56 16.92C16.8135 16.5578 16.9809 16.1425 17.0495 15.7058C17.1181 15.2691 17.0862 14.8225 16.956 14.4C16.7975 13.8658 16.4581 13.4033 15.996 13.092L15.756 12.924C15.756 13.032 15.756 13.128 15.696 13.224C15.612 13.764 15.432 14.2824 15.168 14.76C14.9342 15.1878 14.6045 15.5555 14.2048 15.8345C13.8051 16.1135 13.3461 16.2961 12.864 16.368C12.2297 16.4922 11.5746 16.4592 10.956 16.272C10.4428 16.1305 9.97541 15.8575 9.6 15.48C9.18847 15.0613 8.93052 14.5158 8.868 13.932C8.80789 13.438 8.88865 12.937 9.10098 12.4869C9.3133 12.0368 9.64853 11.6558 10.068 11.388C10.5044 11.0987 10.9938 10.8989 11.508 10.8C12.0168 10.716 12.5288 10.68 13.044 10.692C13.4459 10.7028 13.8467 10.7389 14.244 10.8H14.316C14.2629 10.4716 14.1532 10.1549 13.992 9.864C13.8759 9.66982 13.7212 9.50149 13.5375 9.3694C13.3538 9.23731 13.145 9.14427 12.924 9.096C12.3962 8.93395 11.8318 8.93395 11.304 9.096C10.9236 9.23054 10.593 9.47743 10.356 9.804V9.888L9.156 9.06V8.976C9.65603 8.25117 10.4172 7.74802 11.28 7.572C12.0159 7.41155 12.7807 7.44462 13.5 7.668C13.9033 7.79148 14.2767 7.997 14.5968 8.27165C14.9168 8.5463 15.1767 8.88415 15.36 9.264C15.5712 9.6948 15.714 10.1568 15.78 10.632C15.8136 10.8385 15.8336 11.0469 15.84 11.256L16.2 11.424C16.7628 11.7229 17.2605 12.1308 17.664 12.624C18.0792 13.1364 18.3516 13.7484 18.456 14.4C18.5412 14.7936 18.57 15.198 18.54 15.6C18.4786 16.5991 18.0859 17.5492 17.424 18.3C16.5873 19.2892 15.449 19.9764 14.184 20.256C13.6272 20.374 13.0609 20.4423 12.492 20.46C11.9752 20.4817 11.4575 20.4617 10.944 20.4C10.1109 20.3027 9.29985 20.0675 8.544 19.704C7.56981 19.2104 6.74225 18.4697 6.144 17.556C5.70183 16.8662 5.36606 16.1138 5.148 15.324C4.9872 14.7288 4.8712 14.1248 4.8 13.512V12C4.8 11.496 4.8 10.992 4.884 10.488C4.9334 9.91787 5.02566 9.35227 5.16 8.796C5.34313 8.09519 5.62602 7.42433 6 6.804C6.75046 5.46736 7.9752 4.46101 9.432 3.984C9.95489 3.80628 10.4932 3.67772 11.04 3.6C11.7258 3.5219 12.4182 3.5219 13.104 3.6C13.9325 3.67662 14.7431 3.88736 15.504 4.224C16.6016 4.70814 17.5353 5.5001 18.192 6.504C18.6533 7.22818 18.9937 8.02255 19.2 8.856L17.784 9.24V9.144C17.6242 8.57578 17.3901 8.03109 17.088 7.524C16.4727 6.52442 15.5188 5.77915 14.4 5.424C13.811 5.22415 13.1972 5.10703 12.576 5.076C12.1168 5.03815 11.6552 5.03815 11.196 5.076C10.4872 5.14541 9.79643 5.34045 9.156 5.652C8.3283 6.08424 7.64754 6.75247 7.2 7.572C6.89073 8.13365 6.66055 8.73534 6.516 9.36C6.38992 9.86826 6.30564 10.386 6.264 10.908C6.23272 11.4075 6.23272 11.9085 6.264 12.408C6.27045 13.2958 6.39145 14.1791 6.624 15.036Z" fill="black"/>
<path d="M14.4001 12.3722C14.3737 12.8762 14.2597 13.3718 14.0641 13.8362C13.9041 14.1901 13.6405 14.4872 13.3081 14.6882C13.0849 14.8082 12.8401 14.8862 12.5881 14.9162C12.2236 14.9874 11.8487 14.9874 11.4841 14.9162C11.2453 14.8517 11.0212 14.7417 10.8241 14.5922C10.7051 14.4871 10.6082 14.3595 10.5389 14.2167C10.4696 14.0739 10.4293 13.9187 10.4204 13.7603C10.4114 13.6018 10.434 13.4431 10.4869 13.2934C10.5397 13.1437 10.6217 13.006 10.7281 12.8882C10.9519 12.6688 11.229 12.5116 11.5321 12.4322C11.8585 12.3302 12.1981 12.2822 12.5401 12.2882C12.8521 12.2698 13.1641 12.2698 13.4761 12.2882C13.7665 12.3106 14.0545 12.3506 14.3401 12.4082L14.4001 12.3722Z" fill="black"/>
</g>
<defs>
<clipPath id="clip0_136_3">
<rect width="24" height="24" fill="white"/>
</clipPath>
</defs>
</svg>
