<svg width="450" height="220" viewBox="0 0 450 220" fill="none" xmlns="http://www.w3.org/2000/svg">
<g clip-path="url(#clip0_143_15)">
<path d="M197.942 71.5111C216.783 70.4693 231.553 73.6313 247.38 84.1182L242.799 88.1669C232.088 79.5269 219.687 74.7999 205.832 74.9373C190.366 75.0907 176.137 80.8539 165.296 91.968C152.574 105.008 147.026 123.149 147.294 141.075C147.556 158.609 153.797 176.417 166.659 188.704C178.827 200.332 194.254 204.596 210.781 204.248C223.015 203.593 234.077 199.603 243.744 192.054C245.071 193.148 246.267 194.363 247.484 195.575C239.71 202.042 228.132 205.884 218.262 207.365C198.972 210.26 178.682 205.967 162.914 194.31C148.829 183.898 140.373 168.381 137.849 151.148C135.165 132.818 138.798 112.471 150.025 97.4381C161.865 81.5822 178.818 74.2939 197.942 71.5111Z" fill="#F6F6F6"/>
<path d="M282.648 75.6017C285.833 75.4613 289.044 75.517 292.232 75.4875C292.059 91.5858 292.015 107.683 292.102 123.78C292.117 136.059 291.66 148.642 293.234 160.841C294.953 174.155 299.896 187.899 310.948 196.309C322.678 205.235 337.355 205.1 351.285 203.221C349.976 204.065 348.663 204.643 347.23 205.224C341.586 206.984 335.742 208.184 329.809 208.193C318.019 208.211 305.693 204.893 297.23 196.324C290.073 189.076 285.992 179.02 283.969 169.174C281.126 155.362 282.167 140.45 282.282 126.413C282.514 109.477 282.636 92.5399 282.648 75.6017Z" fill="#F6F6F6"/>
<path d="M439.957 75.5801C439.957 75.5801 445.99 75.563 448.803 75.5801C448.803 85.0117 448.683 103.713 448.683 103.713L448.703 158.606L448.691 192.125C448.688 197.731 448.803 203.555 448.803 209.258H439.81C439.81 201.933 439.845 194.225 439.839 186.758L439.827 145.091L439.978 101.059C439.998 92.5961 439.957 83.9796 439.957 75.5801Z" fill="#F6F6F6"/>
<path d="M389.281 75.6497H396.856C396.856 88.1079 396.641 100.31 396.644 112.613L396.685 172.589L396.779 196.097C396.8 200.352 397.051 204.587 397.051 209.255H389.089C389.236 199.279 389.337 189.542 389.328 179.71L389.334 120.182L389.281 90.8827C389.266 85.9523 389.281 80.4409 389.281 75.6497Z" fill="#F6F6F6"/>
<path d="M416.956 2.29702C419.02 2.00213 421.084 1.70725 422.791 1.41089C426.392 6.72026 431.847 14.6821 435.61 20.499C431.405 16.4514 419.462 4.80352 416.956 2.29702Z" fill="#F6F6F6"/>
</g>
<path d="M88.3857 149.672C92.6086 149.51 96.657 149.672 101.11 149.576C103.415 149.526 105.178 150.623 105.178 152.835C105.178 155.636 103.268 155.874 101.11 155.972C98.9525 156.07 85.8497 156.041 85.8497 156.041C85.8497 156.041 74.4708 156.116 68.8149 156.673C66.175 156.933 63.3446 158.067 61.4504 159.939C57.7108 163.633 58.5474 169.715 58.5764 174.522C58.5845 188.056 58.5497 213.642 58.5497 215.38C58.5497 217.119 57.5794 219.036 55.6696 219.036C53.7598 219.036 52.7141 216.972 52.7141 215.395C52.7942 202.971 52.7912 190.918 52.7942 178.869C52.7923 174.406 53.2254 169.614 52.6655 165.195C52.2479 161.903 50.6486 159.149 47.6047 157.634C43.6232 155.652 22.0277 156.001 11.5972 156.001C10.2172 155.617 8.87155 154.77 8.79929 153.173C8.73741 151.807 10.175 150.484 11.4189 150.183C14.3931 149.477 17.8876 149.756 20.945 149.756L88.3857 149.672Z" fill="#F6F6F6"/>
<path d="M68.2298 95.1033C73.9923 95.8247 79.3096 109.084 87.9452 109.882C96.3275 110.657 101.054 101.051 106.736 96.6192C107.728 95.8462 108.993 95.1154 110.301 95.3551C111.166 95.5134 111.872 96.093 112.347 96.8163C114.282 99.7628 105.105 107.134 103.043 109.129C101.687 110.441 100.284 111.902 99.2408 113.484C98.6683 114.352 98.3218 115.529 98.0971 116.544C95.9923 126.058 107.559 130.858 111.471 137.154C111.971 137.959 112.446 139.109 112.118 140.068C111.709 141.261 110.749 141.724 109.68 142.247C103.322 141.412 98.4361 128.929 90.4732 127.565C81.7744 126.075 77.1659 137.002 71.1323 141.087C70.1665 141.74 68.9517 142.257 67.7686 141.994C67.0247 141.829 66.2246 141.261 65.8862 140.563C63.7556 136.173 78.1771 128.102 79.8906 120.944C82.1461 111.521 69.9175 106.52 66.2462 100.171C65.7598 99.3303 65.4007 98.2577 65.7111 97.2919C66.0865 96.1248 67.2059 95.5953 68.2298 95.1033Z" fill="#F6F6F6"/>
<path d="M2.96458 95.1497C6.60982 95.5303 9.54866 99.7619 11.9185 102.264C15.1466 105.673 18.9598 109.814 24.0234 109.85C31.0824 109.899 36.1987 101.934 40.8431 97.5419C41.9339 96.5101 43.5932 95.0954 45.2229 95.2939C46.0034 95.3889 46.5904 95.7658 47.0333 96.4104C50.1081 100.89 34.2599 109.986 32.982 117.087C31.4 125.879 42.3735 130.657 46.4064 136.822C46.994 137.72 47.5057 138.879 47.2107 139.97C46.9205 141.041 46.0815 141.585 45.1906 142.138C38.5691 142.243 33.384 127.861 24.6881 127.422C17.7317 127.072 11.993 135.718 7.36907 139.877C6.22013 140.91 4.51047 142.202 2.86593 141.987C2.18112 141.897 1.58527 141.492 1.21386 140.916C-1.73897 136.334 13.4825 127.801 15.0473 121.145C17.3384 111.401 4.99361 106.633 1.28133 99.9675C0.800153 99.1032 0.444692 98.0283 0.797101 97.0546C1.17008 96.0232 2.02808 95.586 2.96458 95.1497Z" fill="#F6F6F6"/>
<path d="M54.8446 59.1173L55.0511 59.1103C56.0286 59.086 56.8474 59.1777 57.5665 59.9137C59.4209 61.8106 58.6891 66.2801 58.7383 68.7389C58.7898 71.3399 59.5637 73.8235 61.2102 75.8637C65.7517 81.4909 73.5418 80.6642 79.9794 80.5556L92.2634 80.461C95.0854 80.424 98.3082 80.0804 101.077 80.5682C101.967 80.7246 102.991 81.0579 103.608 81.7559C104.1 82.313 104.184 83.0546 104.069 83.7638C103.875 84.9548 102.978 85.6018 102.077 86.29C97.3751 87.0025 92.4005 86.4244 87.6473 86.4117L58.0623 86.393L15.6216 86.5704C13.7389 86.5653 11.0694 86.6509 9.68878 85.1407C9.15714 84.5588 8.95551 83.8472 9.04726 83.0639C9.18504 81.8879 10.3043 80.9619 11.3802 80.6459C13.246 80.0982 16.0125 80.4343 17.9666 80.4455L32.9874 80.5265C36.7629 80.5532 40.7632 80.8528 44.4947 80.1745C45.9385 79.9123 47.3308 79.4016 48.5236 78.5336C54.0249 74.5295 51.8508 67.3555 52.9201 61.8738C53.1883 60.4989 53.6953 59.8823 54.8446 59.1173Z" fill="#F6F6F6"/>
<path d="M22.8006 18.0779C23.7591 18.1181 24.6527 18.1706 25.391 18.855C27.4306 20.7459 26.7363 25.4602 26.9034 28.0632C27.1089 31.2654 27.8329 34.0425 30.1241 36.4258C35.6716 42.1968 43.7932 38.1028 47.1351 41.2848C47.5971 41.7249 47.8382 42.3087 47.8527 42.9435C47.9445 46.9406 38.8016 45.9893 36.274 46.2613C34.4092 46.4617 32.3325 46.9462 30.7082 47.9083C23.5407 52.1549 29.5926 60.1997 25.0876 64.8489C24.4525 65.1514 23.7976 65.3597 23.0827 65.3119C17.9718 64.9711 21.719 53.0154 17.9816 48.7229C14.8079 45.0778 8.73083 46.2936 4.43233 45.9149C3.23254 45.8091 1.54271 45.5563 0.795691 44.4669C0.392703 43.8789 0.164589 43.0259 0.370774 42.319C1.21268 39.4318 8.91885 40.0723 11.4009 39.6847C12.0623 39.5876 12.7083 39.4283 13.339 39.2067C13.9697 38.9851 14.5735 38.7053 15.1503 38.3673C22.377 34.0396 18.5174 27.0276 20.3083 20.9673C20.75 19.473 21.4494 18.7951 22.8006 18.0779Z" fill="#F6F6F6"/>
<path d="M87.4897 18.1106C88.3451 18.1162 89.214 18.1902 89.919 18.7267C92.0903 20.3788 91.1081 26.2144 91.4208 28.763C92.1348 34.5822 95.8374 38.9482 101.758 39.8438C104.702 40.289 109.601 39.2324 111.941 41.2393C112.403 41.6349 112.681 42.1167 112.711 42.7374C112.745 43.4434 112.529 44.1733 112.027 44.6836C110.109 46.6311 105.554 46.0955 102.986 46.1428C96.1853 46.2673 91.5 49.0224 91.3389 56.3963C91.2916 58.5587 91.6863 61.2169 90.9925 63.2909C90.7692 63.9584 90.3338 64.4271 89.8553 64.9257C89.2767 65.1766 88.5908 65.4781 87.941 65.4219C84.1335 65.0914 85.4542 55.0569 84.8053 52.2227C84.5699 51.1918 83.973 50.1493 83.2974 49.345C78.4548 43.5792 68.4274 48.0744 65.7982 44.8942C65.3324 44.3306 65.2065 43.2449 65.3441 42.5436C66.037 39.0123 72.9774 40.1865 75.6342 39.9159C76.0449 39.8775 76.4519 39.8155 76.8551 39.73C77.2587 39.6442 77.6558 39.5353 78.0466 39.4032C78.4373 39.2712 78.819 39.117 79.1917 38.9407C79.5643 38.764 79.9256 38.5665 80.2755 38.348C87.3591 33.8387 84.1181 26.8085 85.4898 20.9139C85.8151 19.5165 86.2885 18.8774 87.4897 18.1106Z" fill="#F6F6F6"/>
<defs>
<clipPath id="clip0_143_15">
<rect width="311.986" height="208.187" fill="white" transform="translate(136.964 1.26489)"/>
</clipPath>
</defs>
</svg>
